<mxfile host="app.diagrams.net" modified="2023-09-12T03:00:50.379Z" agent="Mozilla/5.0 (Windows NT 10.0; Win64; x64) AppleWebKit/537.36 (KHTML, like Gecko) Chrome/116.0.0.0 Safari/537.36" etag="v-lbeuU-Fgsl4bcAJNoU" version="21.7.4" type="github">
  <diagram name="sequence" id="53zKY_djreu8fqfbH5e9">
    <mxGraphModel dx="1434" dy="790" grid="1" gridSize="10" guides="1" tooltips="1" connect="1" arrows="1" fold="1" page="1" pageScale="1" pageWidth="1169" pageHeight="827" math="0" shadow="0">
      <root>
        <mxCell id="0" />
        <mxCell id="1" parent="0" />
        <mxCell id="cwQcEkth57no9mUlX8GR-9" value="" style="shape=image;verticalLabelPosition=bottom;labelBackgroundColor=default;verticalAlign=top;aspect=fixed;imageAspect=0;image=data:image/png,iVBORw0KGgoAAAANSUhEUgAAAKAAAACgCAYAAACLz2ctAAATNElEQVR4nO2deXAc1Z3Hvz3T0zM9PZcuS7Z8SbIsZBn5xJgE8IEPzBoDqQApzq0c6y0CqWxgN5uYEEItyWYJCSyEFMWyhCUkHM6WCbABFttY9vrCsmwJC3TYkq0DXTPS3D1n7x9j67A0Go3UM6975n2qXpU1Hml+8/rbv997v/f6/RhJkiRQKIRgSRugBkIRCWf7I2jtDyMUGXm9YzACX3Dy+7eiMNbFZQVaCByDsgLa5aNhqAccSygiobU/grP9YVwYjOK8I4IvnZHEv5gEiwpYzM/Voixfi+piFlZeI+vfVxNUgIiJ7mhbCMfaQqjvCqX98xfkanF1iQ6r5usw26pN++eTJKsFWN8VE92RtiBCEWV0Q2WRDrctN6CyKDtCddYJ0BeU8F6DiJrWIJz+KGlz4rIgV4vblhuwaj5H2pSUkjUCDEUk7G0K4L9PiQknDkpijlWL7Vfqcf0iPWlTUkJWCPBIWxBv1frR71Gux0tEgUmDO1bxuKYkszxiRgvw854wXjvmw3mHvLNYklxTyuGb1xhh5BjSpshCxgrwL/Ui3qz1kzYjJdh4DR5cL2TERCXjBOgLSnj+gBenO9OfTkk3O6oN+NpyA3Ra9XrDjBJgS38Yv9nrwZCCZ7dysyCXxUPrBcxRaf4wYwT41zMi3qj1Kyafl050WgY/2GjCsrk60qYkTUYIcHedH3+uy8zx3lTRaRk8fIP6RKj6RUgqvhihiISn93pw3h4mbUpSqNoD7q7zYzcV3xgEjsFPtpmxME8dM2TVekAqvonxBiX860ce1STdVekB/+eMH68e85E2Q9EUmLT46U0WFJiU7WOUbd0EtPSF8cdP/YAE2iZp/e4IfvGhS/FZAVUJMBSR8MJBD4IRifT1VUXrHIpgz2llD1NUJcCXDvvQNZQ567rpYE+9qOg+U40Aj7cHsb9JhCSBtiRaMCzhhRoP6csXF1XM1Yf8Ufy2xo1Y4KUkS1NfCB997seWSp60KeNQhQd88f+88ATpuG8m7Q+f+hS5Rq54AbbZwzjWFiAeytTePAEJLx7ykr6c41C8AN886SfuPTKlHW0PoK4jmOwlSCmKFmCbPYxj7QHSZmQUH36hrP5U9CTkjVofVLhQo2iOtolos/MoUchasWI9YJs9jKPtAeJhKxPbvmbleEFFrQU3dIfQZg+hzRFBQ3cIfW7lJlDVjMAxePXePHAK2MpPzA93DkVQ2xFAuz2Cc/Ywzg2oax+bmvEEJDR0h7BqHvlHPNMqQG9QQk2riL3NIpp6M/+hISVz6GwgewRYeyGIvc0ijrYFEFT47oxs4cSFAAAzaTNSK8A99T7sPuXDoE95Gfhsx+GL4txAGKX5ZGfDKfn0L3pDeP6gOyvGdTaewU1X6GA1AKe7Izh8Xj0Tp7P2UGYJcNAXxSvHPPjfL5S9B00uyvM12LXRAOPFodT6Ui2WzQ7jhSPKWm2IR9tABKgga4NsAtxT78PrJ7zwBLIj3C6fo8Ej6/TgLnsefH0ZC4Fj8OyhoOLHu5/3kr9RZpwH9AQkPPHhEOq7yH+ZdLG+jMV31ugmzaOd6o7iqQPKnnSZ9Brs/mYBURtmJMBedwS73htCx2Dmj/Uusblci51rp3ZWX2NvFL/8RIRXwffmuztnEU1IT1uAn/eGsOu9wawJuQBwR7UOdy5LLnfWPhjFYx+J8Cr0UMzX7i1AoZncuTLTWgve3+LHI3sccAeixNc109V2rtUnLT4AWJijwRNbDMgXGOLfYaLW4yI7a0/aA75R68HLR5X7jIHccFoGO9dy2FA2s/lav1fCox/40e9VliesLNJh9Tw9Kot0qCzUwaRP7/6UpAS4v8WPJz9yptIeRcFpGfzzBj1WzJEnRPV5JTzxsYgup3KHLUUWLSoLOVxRyGJDOY9cY2oFOWUBNvaE8PAeh6JndXIicAwe22RARb68F8AblPDohyLaBpUrwtFsKOex9QoDrpqfmkPSpyTAHlcED+4egCNLltRyeAY/3cyjJCc1d783KGHXB37ViBCIecbtVUbsWGqUNUwnFGAwIuG7b9vROpAdu1dmmRj8fKsRs0ypTU0EIxJ+vk/EyW71LN0Bsdzhd64xYcdSQZa/l1CAj74/iEPnRFk+TOmU5Grws808cvj05MWCEQlP7hNxsktdIgSAJUUcfrDegkUFMzsQc1IB7j7lxfMHXTP6ALVwZZEWuzYaIBAof/DMIRF7W9WZzP/6cgF/u8Y07bAcV4CeQBT3/qE/K8Z9K4u1eHSjgeiKwDOHRHysUhEWWbR49rY8FFmSzxbEFeBzB114uy7z832bFunwD9cZSJsBAHjlhIjdDeoca5v0Gjx1Sy6qipJL1k8oQIcvgttf6cv4lMutS3T4u6uVIb5LvF4XwOunFLx4PAmclsHjN+bgurKp9+mEAvzx+w7UnM3sicfdyzncs0KZBQD3NIbw4jH19v/3rrPgjhWmKb133PpSS38IB1oze0Ppw9fx2Fyu3HIGty7RQdABTx9U53V4tsYJjmVw65WJUzXjBPi7wy5kauDltAweuZ7HuhJlnAowGZvLdeBYBr+q8atyKPRMjROLCnRYmmBMOCYE270RbH+pJ+XGkYBjGTx+A4/Vc5UvvtGc6Azj8b1+BMPqE2GeoMWrdxUgT4g/Ox6TvDlwViS+PSgVTeAYPHuzoDrxAcDquSwev4GHwClzO9dkbcAbwQ/fc0x684zxgA/s7kdth3LODZGDQpMGT2wRUJar2GNwpsRZRxQPv+eBR6EbWydje5WAn2zJmfD/hq+K3RvBiY7MOgxonk2DX29Xv/gAoCxXg6e3m1TpCd8940Vz/8T5zeEr80mrn/gpnnK3b602oFDhhVqSoSxXgwfWGoj363TaS0cmXtIdHhR91OxHph0C3tgXhnkGW4fmWRnZN2Q29kUQmsHeg31ng6q8Tvtbffik1Yj1i8YelD48Blz56w4ihimdp7aZsEamycv33/egrlud671yUDGLw5/uKRzzGgsA3a4wlHNKoLI40xuWRYA9nihOdmWv+ADgi94g9rf6sWGUF9QAQLdTffvRKOrkz/VjN7iwANDlDCFKXeCEyHaArATaxwCOXxDhDkSHx+YxD+iKEJ+qK7nJBenvoYQmhiXsaxkptcsCQJuDjgHTAe3jGB984cctS2O7ZS6G4LCsd3omIVe/yO1N1czxjpEwzAJAvzcMNeaW1Abt4xhiWMLBc37cVCnEBDjHwqJzKLtTBPGQM2zSEDxClzOmNxYAzHoNvTfTAO3jEbovHorEAkCeoKElseIgZ9ikfTxCpzO2OWE4BNOuST20j0foHB2CS3N1dHwSBzoGTA2X5hwsACwr1tO7Mw3QPh5BvLhLmgWAAkELs56BS8z8UxCSRdY8IHWBwxRcfE5keJvHsjkG1Jzzxf0Fysyh8huh2BaT3rAAN5XzOEAFOA6514IpMYqtseeyhwW4rswISRogZpBikTFs0hA8QrH1shA818piebEBdV3qPRIiFVAPmBqKLZeFYADYXimgtpMKcDRyiiZKFThMsTUmvTFP3OxYYgLHqu+xv1Q2OSH9XZTSOJbByuLYCVpjPGCBSYvbq814rTZ7SjEkQrYN0RLoGPAia+fzsBhG7YgezT0rzcTvECU1OSH9XZTSbq8eqdQ+ToBVhXrsqDIRN1JJTS5Ifw8lNI5lcGPFyLFtEz5v+LPN+djf6oWTroxAPglKNAQDuHGxCXp25CzuCR/7n2XS4kcb84jfLUppk+HsjbWpQPp7KKFtrTCO6ZO4T1zfv8qKN0+7aVpmlAJDgQjONg6g57wLPRfc6GgdgqsXmF1QgoqqMhSWArMro8ibH+dPJVJzhlOez2Fbxdijeyd95P/fbirAtv/sRECFhyPOFIvDCaPbhx53FE/9aQhfXnDBaZ/4yNxQAJg/twztdUB7nQY6PVC0GMgviaJoMaC92MvZ14tj2bUxd0z4BRIIcGmRHvevsuLFo4MpNYwkJqcHvE+EyemBxeGCweeH0T2yJt57sSVDKAB0NAAdDRpoWaCgFODmSjBIgD9LZbhxkYBtV4w/uDxhqa5AWMI1vz2PC0PqrF9xCaPbB97nh2XQDcHthdHtg8kpTx2UgrxCXLt205Te26oJop7xo14TgJ3JngfBPtk5H0uLxlclSHjqjp5lsOf+Ymx9uRN9HuV3GCcGYPT4YHO4YHT7wftE2AaU48EXRTksAoevRYBOJoR6jYhajR+9GSzGv1+bM6H4gCTqBTf0BLDj9x2KSc2woTDMTg/MTg8MPhFmpwfWQRc0kfTbl4wHjIedieC0xo9axod2Rt3RZjRWgwbHHlyIWaaJfV1SFdNPdPpx8+87h7dTp4ucgSEIbi94fwBWhwuCxwdOVE41ITkEOBoXE0EjE8RpxofTGvVmIQwsg7fvKca1C41x35OUAAHg4xYv7n6jO6UizO91oLT1Agw+EbxP+RdAbgGOJgQJpxkRpzR+nGFEVU1iXv/GHGyvnLxiUtInL24qF/Dy12fjrje6pm3YZLChMJZ/+hm0BEJpPDQaDWwmK7yiF4Fgej2vDgxWSzxWR2KHOp7RiDjF+HEaIpyMcs91/M32woTiA6YhQADYXmnC724twvff7ZXdE7LBMDHx6VgWZqMZFsEMnuNhEUwQDAL0XKzaT/3ZRnT1dxOx7RJVUQOqYMDdADqYEI7Ai88YET0KmsT8aEMevnWVbUrvnfbZs3evsOKqeTy+8cdONA/I6RVSH2J4PQ9eb4DNZAWv52HijbCZrNBo1HWi/jxJh3mw4Q4J6GHCqGP8+BQ+dDDkxsffvioHP96QP+X3z+jw48X5HA4/UIIf/rUP/3FcnlSHnMtVeo4bFzJzLTm4eskq+T5EIRRJLLZJZmyDGU4mglMQUQcfPmPSM4Y2sAx+uW0Wvr1m4oI08Zjx6dsGlsGzNxfi2oU8vveXXjjFmY1LktWfnuMgGARYBDP0LAeb2TocNpUQMklglbRYBwHrIMAvRXGSEfEZ/Khj/AilIMIUmli8eVcx1szjE7/5MmQrnnb7lRasmcvjvre6cLxj+mVG4x0GpOc4WIxm2ExWCLwAvY5DriW5uy0b4aHBVyUjvgojQpKEzxgRJ+HDSfjhx8zH2teXCHjr7mJYDfELEk6GrNX7FuTocGDnQjx32IHnjjhwfjD5hGq8Lsm35qO6bMnMDMxydGCwQuKxAjw2I4jHmJlVRv3H6/PxL1sKZvQ3UlI+8qGv5OKhr+Tiv04O4Vc1DjT1J1EAUT1pLlUzH9y0+/q+lTY8ujEfC3JmXvQ7pfVL71tpw30rbXin0Y2nagZwbAqhOUoVmDaS7es7q614csssWYR3ibQU0L1liRm3LDHjwDkv/v2wA+80uuO/meovbUw143BntRX/tC4Py2YbZLchrRWc15UKWFcqYEiM4J0zbnzY4sU7ja4xyWyqv/QRr6+LzCy2LjZha7mAW5ZYYLhsE6mcECkhbjNocf8qG+5fZQNQjE/OeXH0gg/HO0Wc+jxzdoIonUvbAK4o0KPIzGJLuYAbK8xYngJPFw9F1LBfXypgfWnsUb3+bhu++/4xwhZlB9FfVJE2YeKn4iiUdEEFSCEKFSCFKFSAFKJQAVKIQgVIIQoVIIUoVIAUolABUohCBUghChUghShUgBSiUAFSiEIFSCEKFSCFKFSAFKJQAVKIQgVIIQoVIIUoVIAUolABUohCBUghChUghShUgBSiUAFSiEIFSCEKFSCFKFSAFKJQAVKIQgVIIQoVIIUoVIAUolABUohCBUghChVglqJVxOHMCjkjmpI+tCywoFqH4kpl+B4qwCyhsFSLhStYLKhmFeP9ABUJ0O11obXzHHItOTAbLdCx0yuOl00IORqUrNCidKUOQk7qan3MBNUI0OXzwOXzDP88unqmWTDDYjSD16evvoVSuRRiS1ZqMatE+TepagR4OYFgEP1BO/qH7MOvaTQa2ExW2ExWmHgBwVASRRJVjlJDbCJUZGpiotEoHK5BOFzyVG9XOmoIsYnIKAFOBYdrEPtO1gxXWddpWeRacqDXcRB4gbR5CeEMDOYuYVG2Rov8ecoPsYlQnABteUbY8o0YGvCl7DMCwSACweCEntJiNIFldciz5IDT6WHijRAMAvQclzJ7psLsxVrMv1J9ITYRjCRNtWhn+uhqG8KBd5vRUt+H5oZehAIR0iYBiE18AsHguNcL8gpx7dpNsn+ekKPBoqu0WFCt3hCbCEUK8HLam+xobxrA+SYH2pvsOHOim7RJY5BTgJkWYhOhCme+sCIPCyvyxrzWUt8bE2azY/jfaiZTQ2wiVPtVy6sLUV5dOOa1Mye60d5kx/kmB1oaetHVNkTIuqmRDSE2EaoV4ERUrZ6DqtVzhn8OBSJobuhFS30fzjfb0Vzfh/5uN0ELsy/EJkIVY0A58bqDaG8aQOOJL9HeZEdLQ9+MZ9xTGQNma4hNRNYJcCKGBnzDYmxp6ENLfS+87vGz3XjEEyANsYmhAoxDf7f74uzbjsYTX06aDhotQBpik4MKMAm62oZik5xmO1rq+4bTQZWLq7Hhb5bTEDsNqAApRPl/ibRRBHvEg1gAAAAASUVORK5CYII=;fontSize=14;" vertex="1" parent="1">
          <mxGeometry x="830" y="371" width="160" height="160" as="geometry" />
        </mxCell>
        <mxCell id="cwQcEkth57no9mUlX8GR-11" value=":Object" style="shape=umlLifeline;perimeter=lifelinePerimeter;whiteSpace=wrap;html=1;container=1;dropTarget=0;collapsible=0;recursiveResize=0;outlineConnect=0;portConstraint=eastwest;newEdgeStyle={&quot;curved&quot;:0,&quot;rounded&quot;:0};" vertex="1" parent="1">
          <mxGeometry x="90" y="70" width="100" height="610" as="geometry" />
        </mxCell>
        <mxCell id="cwQcEkth57no9mUlX8GR-15" value="" style="html=1;points=[[0,0,0,0,5],[0,1,0,0,-5],[1,0,0,0,5],[1,1,0,0,-5]];perimeter=orthogonalPerimeter;outlineConnect=0;targetShapes=umlLifeline;portConstraint=eastwest;newEdgeStyle={&quot;curved&quot;:0,&quot;rounded&quot;:0};fontSize=14;" vertex="1" parent="cwQcEkth57no9mUlX8GR-11">
          <mxGeometry x="42.96" y="160" width="10" height="70" as="geometry" />
        </mxCell>
        <mxCell id="cwQcEkth57no9mUlX8GR-16" value="version completed&amp;nbsp;" style="html=1;align=left;spacingLeft=2;endArrow=block;rounded=0;edgeStyle=orthogonalEdgeStyle;curved=0;rounded=0;fontSize=14;" edge="1" target="cwQcEkth57no9mUlX8GR-15" parent="cwQcEkth57no9mUlX8GR-11">
          <mxGeometry x="0.006" relative="1" as="geometry">
            <mxPoint x="50" y="130" as="sourcePoint" />
            <Array as="points">
              <mxPoint x="78" y="130" />
              <mxPoint x="78" y="160" />
            </Array>
            <mxPoint as="offset" />
          </mxGeometry>
        </mxCell>
        <mxCell id="cwQcEkth57no9mUlX8GR-10" value="" style="shape=image;verticalLabelPosition=bottom;labelBackgroundColor=default;verticalAlign=top;aspect=fixed;imageAspect=0;image=data:image/png,iVBORw0KGgoAAAANSUhEUgAAAS0AAACWCAYAAACLmd7sAAAgAElEQVR4nOydd3wVVfqHn5m5c2t6JSQk9F6lCLoCC4guIoqIimVR190VC2BfAVEsKKKIBV1QQVFZQEQQkSJFQCnSkSIllARSSM9tc8vM/P4IiUAqSDH+5vl8Qpk5c+acyb3fec973vMeQdd1HQMDA4Nagni5G2BgYGBwLhiiZWBgUKswRMvAwKBWYYiWgYFBrcIQLQMDg1qFIVoGBga1CkO0DAwMahWGaBkYGNQqDNEyMDCoVRiiZWBgUKswRMvAwKBWYYiWgYFBrcIQLQMDg1qFIVoGBga1CkO0DAwMahWGaBkYGNQqDNEyMDCoVRiiZWBgUKswRMvAwKBWYYiWgYFBrcIQLQMDg1qFIVoGBga1CkO0DAwMahWGaBkYGNQqDNEyMDCoVRiiZWBgUKswRMvAwKBWYYiWgYFBrcJ0uRtQFaqqous6giAgiiKCIFzuJhkYGFxm/jCilXMyh+PH0zlx/ARHjhzmZE4OzmInfkVBNpuxWq3ExsWSlFSP5PrJJCUmUS852RAyA4P/Z1xW0fJ4PKxbu5aNGzayY/t2du/eTUF+PiCgV3iFjq7pWG02mjZtQrt27bimR3f6XHstERERl7bxBgYGlwVB1/WK9eEikpOTw5dz5rDom284cvgwebl5aDqYLWbqxMXQsX0rrmjTnLoJsdhsVjRNo6CwmLQTWezcvZ/9B4+Sn19Ibn4BYWGhXHHFFdx7/30MvOUWJEm61N0xMDC4hFxS0crJOcn8efP5cNo0ck6eJDExkby8PAoKi0hKiOeG67ozZOD1NGyQhCybkEwmEE/NFagagWAQvz9Abl4hO/ccYM1PW1i7fgu/7k8lNCyUwbfewpjnnyc2Lu5SdcnAwOASc0lEK6iqLJg/n2kfTOXosSP07NGTK7t2ITMzmy/nfkmXDs3519Bb6dyhNQgQCATRdR1NVdE1FV1XQdcAEAUQRRGTyYQO7NqTyvIfNvLV4h/YfyCVXr17MWHi6zRt1uxid8vAwOAycNFFa+/uPUycOJEf16zh6quv5s6778RuD2HhwoXs3LaFuwZdx+Cb+2IPC8Xn9qCpQbSgDy3oR9c00DVKmqhR0tKS5goICKKA3WZDEEV27k3lzalf8s3SNXTr1o23332bFi1bXsyuGRgYXAYummhpqsrMmTOZ+NoEoqKieHT4IzRt2pTt23cy45OZhFoFxj0zjE6d26L6g/gVL1rAixpQSkSqtFlC2R8Vo+uIoojNZuFkbiGvvPMFM+cu5eq/dOODaVNp0KDBxeiegYHBZeKiiJauabwz+W1effVV/tqzB088+QQej5dVq9fw/YoVJMdH8MqYR2nYKAW/x0tA8aAG3OiqCr8jhMFqMZObX8Sz4z9k/pK1DBjQn3ffn0J0dPQF7J2BgcHl5KKI1ry5cxnx6HAG3TqIkSNHsv/AAVauXE3qocNEh8m8+J9/UzcxAcXjJai4UP3u0uaUWFjVWVeVomO320lNO8nwMW+zaetOHnnkYV5+9VUjnsvA4E/CBV/Gk5uby9uT36Znzx6MGDGcnbt2MXfOXI4cOQqqwsh/D6FuUl18Hi9BrxPV76FEoARAR5JlrFY7Ztl0bkKj64iiCdkRQfMO7Rk57G6Sk+oy64tZLFuy5EJ308DA4DJxwYNLly1ZQnZWJg0bNGDChNfZ/PNmPB4PQVXjn/cMpHWbZiWC5XOXCJZQYl2Jkgl7aDjegM6BoyewmHTqxoaiqjUzBAVBwBYSwfIftjJ3wVIUnx+bzcaJjGz+N2sW1/TogcPhuNDdNTAwuMRcUNH6ev583nn7HZxOFz/++BPJyUkMuGkATZs0YfacuRQWFoGqowV9BH3uMsGSZDO20Cg2bdvHex/PZuuOfciyiZH/uJm/39oXr+Kr5s46FquVg0eOM3XGHA4fTQMECopcWG02NqzfwC+7dtG1W7cL2V0DA4PLwAUTraXffcezTz9DTk4OHTq0566776Zt27bk5+eTl5+PyWRmf2oaAb8P1ec55bsSEEQRqyOMRct/4ukX3sJiNtGpbWM0Xcfp9qJTOnCsCgFVVRE0H0/++xZaNE7G5VH4dsUGPv9qJXv2p7LmhzVc2bWr4dsyMKjlXBBHfHFxMXfecQc/rfuRPn36MHLkCLyKwsaNP5OZlQXAr7/uJ9xu4ospzxFUXGi6DujYHSHsOpjF3Q+Opk3zFJ588DZaN6uP2WzG4zkV/lADdB1MkogkiaiahiiK2G0W1mzYyWMvTCExpRHzvvoKi9Xye7trYGBwGbkgjviNGzaye9duWrduxfCRw8nOyWHBwkUcP3ECURQxm83ouk6o3YxIEP2U3SSJEj5/kE9nL6JBUjxvPPcgnds1Q1N1PB7lnNogCKBqGv5AEFXVCASCOF0eenRrz9DB13Hw4EEyMjIuRHcNDAwuIxdEtH7ZtRNncTG9evUiqGqsXr0GTdMwm81lw7FgIEBMVBi6FqQ0nEEQBIqLi/F6PAz/x0Dq1Y2j2OlB1Uqi4EutLFE8v2YKgkAwGOSqTq2IjQxj9549F6K7BgYGl5EL4tM6cuQIVquV+Ph4dmzfgd8fwGIxl53XAU1TaZRcp+Q/p8RI1TTMJomR/7iZhPgonC7PWTWXlCt2enDYLeX8UYIAkiShqlq5YaQoCKRnnCQhLpoG9RKIiQzl8JGjF6K7BgYGl5ELYmnl5uQSHhFOQFXJyspGln/TQkEQCPgD6FqQZo3qAb851XVdx2yWaZSSgCxJ5YVHkhFkO0vXbCEQCJ5hcZVYURr5hU6CQbWcoFmsDn7YtI+jx7OJiQrDYTNzPC3tQnTXwMDgMvK7RevDqdPYsmULoaGhKF4Fr9dbTly8ihdRgMSEmHLX67qOzx845ZgvO4ooyZgdEZjt4WTkFHHw6Aksp4mhJIp4FR9fzF9F6tEMrKWWna4jmsyYQyIICQtn2ZotIIpYzDJFRUW/t7sGBgaXmfMXLV3n7bfe4qVXXqHY5UISxZKwA1FEkqSyn1JLKzo8FJvVcpY4VY4gySBImM0munbuwLzF63B7fZhOJfnTdZ3wMAdFTherN+xAFEoEEkHAYrWBWeav3dqxY08qu/cdIToyjL179nA4NfW8u2xgYHD5OS/R0tF5e/LbvPr6G8TrOs0cdryBAMXFxRTm5ZF27BhZmZm43W5ESSpJIWORkaoPuCrDRBCLGUQJ/tqtNaIo8v6nC8vCGVRNw2a10qFVY75b9TMHj5zAYpEBOHEigz1bt3E8PY3snHxmLVhFZGQ4hw4c4MnHn+TE8ePn020DA4M/AOfliP/s05m8MXkyEaLAxLrxrPF4+cjpYsWKlWRlZaF4FURJJCY6mtZt2hAZHcPxDC9+f7BG66AlSWLfoWPs2LOSuOgIIsNDEdD5ePYSBvS9imaNkvAqfhSfj55XtWPWwpW8Pf1rJj0/DFk2MXPuUmZ8uQy3WyEqIpQG9eqQl1+E2Wph9dq1PDd6DJPenmzklTcwqIWcs2itWP49L49/Fcnv56XEOrQwy7xdUITX7UaRRR66fzBdrmhD2vEsPv58Pps2baLbVVcRFEykZ+aQkBBbfaMkibQTJ3lx8ufIJhNm2URBsYvuV7YhMjwEVS3JYhoMqkRHhjLkpl6MnjCd2QtXcf/tf+O6np1QfH7Cwxxc3bk1Xa9owctTZpMkSURHRTBv0SJiYmJ4dcIEJJORU97AoDZxTqJ17OhRXnzpJQry8hlbL4HBoQ4+L3axzuWmcWIdJr38BE0bpeB0uun5l060admEex95jrRjx4iIjGDPgWN06dCidMlhpfgDQf7SpTUfTnicHXtScbo9pCTF89er2hMRHoo/ECwr6/H66d/7SjZt38eE9+eQlBBL3792oXWzBqcCW0uyRbh9fhIlkX9HhZETDDLjiy9o0bIl9/3j/vN+eAYGBpeeGouW2+3mtVdfY8eePfy9Tjz3hoXi0TR2Kj504ImH7qFR/SRGvfQ2a37aylVd2vHC0w9wQ5+rmfftD+Tk5rEvIQxB/C0NTWXouo5ZNvGXLq35S5fWZcdVTSMYVM8oq2kaskVm5AOD2HcwjdGvzyAuJoI2zRvi8Sq4PUHsNguaqiEg0Nxs4p/REbyUmcNbkyfTpm0bOnXufK7PzeBPhtfrxe12o2ka0dHRl2xXJ1VVycrKwm63ExkZeUnuWdupsWh98/UCvlywgC6REQyPDMMuCJwIBMny+6kXH8s1V3XE5/OSEBNGXEwk+w8eYfL7n3N1lzZ8s3QNkeE2OrVtiq7pNVpPqGkloRC/xV/plVpnPl+AhLgoXn76Pv759FuMem067738KHXjo/H7AyAIqEGVUEFH0XSusZq5PTqCaRkZvDnxDaZ/+gk2m62mj8KgFrFp0ya2bt2K1+vF5XKV+1EUBZ/Ph8/nQ1EUNE3j7bffpnv37he1Xfn5+XzwwQcsX76cgoICLBYLzZs3Z9iwYVx11VUX9d61nRqJ1vHjx3n/g/9iReCRqAgayTLFmoZTU0HTiI6OQNM0kpPrUCc2ikH9unNdz048/8anpCTGsnzW64iCQGio/YyhXU2o6YJpr9dHu5aNGPfE33n8xf/yn1c/4rVnH6BufHRJEGp+IVGajnZKBG9x2PglIpwVP/7Il3Pm8vd7h55Tuwz++Oi6ztSpU5kxY8Y5XZednX2RWlRCeno6999/PytWrDjj+JYtW1i6dCnvvPMOQ4YMuahtqM3UKOTho6nT2Ll/PwOjI+hlt+HWNPKDAXR0wkwSWSfzCQQCoKn4A0Hq1Y2lReNkbruxB1ERYSTERxEVFYYoXpi0MIIAJqsDyWwvO6YDiuLnup6d+ccdf2PJ6p/ZsScVq91KTn4hhYVOYk8Fp/p1nThJ5NYwB5ZggI+mTzfCIP6k9OvXj7vuuotOnTrV+BqT6eJtvK5pGv/5z3/KCVYpubm5jBgxgt27d1+0NtR2qv3t/Prrr8xftIgUs5m7w0OxCQIZwSAeXcMhCKSYzeQXFHHwcBopdcJp0iARk8mE0+3luh6d0HQdj7e6JH7nhiDJiLINLRg447gsm5AlCYfNSlx0BLFR4SAIZOUU4Cp2k2yWy8p6dZ1uVgvXRkUyf/duvvrqK4aPGHFB23kurF69mjfffJNgMHjeC8ShxEfSvHlz3n777QvYutqJIAjceuut3HrrrWRmZrJixQqeeuqpi25JVcXu3btZunRplWVycnKYO3curVu3rrLc/1eqFC1d1/lq3jyOpaXzYN14rrCYKVCDuLQSZ7gONDLLhKsqsxeu4JqOzejasQUuV4lvQBQEBEGo8RCvOgRBIBAIsGv3YZLr1SUpPhxdEjGbZSRRJD3jJCvWbWPWglX0630ljRskgqaRlVuAu8hJkt1a5v7XAKsAN4TY+KHQzPz5X3Pr4MHUrVv3grT1XDlx4gSLFy++YHUZnElCQgL33HMPqampvPTSS2iadlnacejQITyesxMDlGf//v2XoDW1kypF6+jRoyxa/B2JVguDQh0EdShWVTR0BMCn6zQ1m2hnt/D9T1tZ9dM2/tbzCqxmM6qmIYkSoiQQDARRtfMXrtIQCVEUUDWdRd//SIvGKdw1sBdOt5dDuw+xYes+lq/ZQiCoct/g67htQE8cdgvBQJDUY5nY3R7Cwh1nLCMK6DrNZRN/iQhj8d69rFj+/WXzbXXv3p0pU6Zw6NAhtm7dyo8//nhOX6xOnTrRuXNn6tWrR/v27S9iS2s3f/vb35gyZQq5ubmX5f5RUVHIsoyiVJ0vztj2rnKqFK2NGzfy64GD3BUfSyvZTLGmouhaWVC7BthFgQFhIWzJymPc5JlYZZEu7ZthkiQysvOYt/hHOndoydWdmqNUm+v9dErERdcFTCYJ2WRC0zQiwkNoUK8OH8z8huVrt6CqGsVOD3a7hUE3XMNNfa+iblIchw6m8/XSX+jSvjlb9xyiicmETRTPCLRQAZsg0NtuYVWhxIIFC7jz7rsuqk+jMpKTk3nooYcAyMvLY8OGDYwePZpdu3ZVeZ0gCIwZM4Zhw4aRkJBwKZpaq4mPjyckJOSyiVbnzp1p0aIFP//8c5XlBgwYcIlaVPuo9NsZCARYvnQpFkmir8OGJIBTVdE403uvaDodrWbuiApnenoWD42dwvXXdKBOTCSr1++goNhLz55XIUgm0JWab8YqSIgiaKrG+s17cNit1K9Xh+ioMP4++DqaNaqH26Ngt1lJSYojPiYKURLJzM7lq2lfMXvham4f0AOv4mPLrgM8HGLDKggoZw1VVaCpLNPcamHXvl/ZuWMnHTt1PPcneQGJjo6mf//++Hw+7rjjDoLBymdcGzRowL333msIVg253HsEOBwOXn75ZYYMGUJeXl6FZR5//HH69OlziVtWe6hUtI4eOcqGnzfTwm6jtdmMomsomlZuurFUAoaE2rCLArMLnXy28AdEXcNqMvHmS09yZad2OPOyatYiXUcwyZgsIeiqH6tZxeXx8ua0eVitZpLqxBAdFYbdakGWTei6js1qJu1EDp/PX8GufakcScvmzpt7cd/tf2PO4rUIhU4a1I05o72lBHSdeEnkCruV7bn5LF+27LKLVimNGjUiOjq6SsdxdHQ0dru90vMGZ3IR9iY+Z6699lrmzZvHm2++yfLly/H7/QC0atWK++67j4cffviyWPu1hUqfzM+bNpHrdHFTmIN4k0ReMFC2M87ZBHUdkyBwa4iNjhaZLYqfRcVu8mWZ9m2agg6CcKbc6bqOySSh65Tz3QiChNls4ejhdDZt3U2/Pl1JiIti6heLWbZmCy63B6/PTzCooSh+/n33DdSJi2TJqp+Ji4nk2UeG8MCd/RAE+GrFBlpazCSZTPgr+MCW9qmN1UKoprF9104CgQCyLJcrezmoyYf3j/BFNDg3evbsSefOndm/fz+FhYWYzWZSUlKoV6/e5W7aH55KvxFbtmxG9/toYYnCKoBHr9opHNRLnPNNZRONZBOZgQDzvX4OHk6jccOUU/mxSpyPgiAQCAbJzS8iOjIMk0lCK3XUC6BrQYIBL2EOKzv3Hsbr8/PAPTdyRZumHEnP5EDqcQ4cOU5OXhEer4/2LRtSr24ccU9H0rFtM1o0qYfDYWf+knXs//UI/7RbiZAEXJVMBviBxrKJOlYLR9OPc/jwYZo1a3ZeD/RCcnqefIM/Hw6HgyuuuOJyN6PWUaFoud1u9uzfTx1BoLFZxqVpqKdEqSp0wKPrhIgC9c0ygUIXazdsp9+13RElmRKbRkPXIdRhY8HSn6gTF0XfHp3wlsVyCeiais/jJDTExkP33cTYiZ9wND2LITf3omnDejRrWK/ENyYIIIAWVPH7A/To1hZV1RAEgZycfD5buJpYX4BrYiPwVTF7qeo6MZJIA5uNNWlpHDhw4A8hWgYGBuWpULTSjh3jZF4+dS0WkmWZYlWtdGhYEUEd2ljM1BUF1m/fTfbJXKIjwwkoIvqptDKCKNIoJZGZXy2nSYNEGtRLwKP4fruHruMPBEmsE8O/7+rP4+P+y4JlP9EoJZG6daIJD3UQ4rABOi63j6YNExnU7xokUcRmszBvyY9s2bKH4dHh1JGkcg74imhqNbM0+yRpaek17OmfE13XS7LQCgKiKF5253Upuq7/YdryZ+NSPNua3qO6chWKVmZGJkXFxbSQZaIlkROBQEXFKsWn6zSSTfQJC+Hr41ms37KLgTf1RfRYUIMliQC9ip+uHVuwafs+Jk2dx8vP3E+ow4bPf+a9vF4fnds3ZdILDzLti2/ZezCNg0eOo2k6FotMWKidxPgYrrmyNSaThFk2sWNvKh/NXUZT2USvEBtqJe0se0in/k4wSVhMJjIyTvy/+oJ4vV527drFwYMHSU1NJTMzE4/HU7Lhrd1OfHw89evXp1GjRrRr147Q0NAa162qatmi5NP/Lv136X3at29fLiljZmYmu3btYv/+/aSnp+N2u5FlmXr16tGyZUs6depEXFzchX4clfYjOzsbRVFqlAFC0zQsFgsJCQlnfI5UVT3jWZz9b6/Xi6IotGjRguTk5Crvcfr1Z9enKAoul4ukpKQKI+u3bdvGvn37OHToELm5uaiqSmRkJI0bN6Zt27Z07Pj7J6P27NnDoUOHOHLkCCdOnMDlciGKIg6Hg/j4eBo2bEhycjLNmzfH4XCQn5/P2LFjcTgcPPfcc4SEhFRYb4WidSIjA7fTSWJEODo6wXP0q+iApusMCg/hh2OZLFm1get6X43Fasfj8wIanHLA/+uufoyZOIPXP5jD2BF3Y7HI+Hy/CZeu63gVP53aNqV9qxGkHsskJ6+QQCCIxSwTFRFKclI8tlMbWxS7PLw3YwFHj2fRKzIcMyDUMMdzgiRiMZk4ceIEXq8Hu91xTv2ubRQWFjJr1iwWLVrEpk2bKCgoqLK8w+Gga9eu3HjjjQwdOrTSzK+HDh3ixRdfxO/3oygKHo8HRSnZ9OTsH6fTidlsZsGCBfTt2xeAkydP8uGHH7JgwQK2bNlSaXu6du3Kgw8+yNChFz8gOC8vj3//+9/s27cPi8VSpXDpuo7P56Np06YsWrSI/fv389Zbb1FYWFj2HM5+HqX/L31WY8eOZdy4ceXqnTZtGmvXri0TJ4/HU66e0mNut5tBgwYxb968sjqWL1/OtGnT+PHHHyudlY6NjWXAgAE888wzNGnS5Jyf1aJFi5g1axYbNmzg2LFjVZaNiYmhQ4cOXHPNNXg8HqZMmYLNZuOJJ544N9HKy88n6PGSEBuDT9NQqfnQsBRJEIiSBOqF2Pj+hw1s2Lid3r2uQvK6Cfo8CEJJ5lGH3cYT/xrMqNc+ZsL7s3nsX4MJdVjxKv4z6lN8fkRRoFnDJFo2SUZAQNN1VE0lGFSRJAmvovDejAWsWLMZhyyxQ/Ex12XizlA7ZqHEAqyqH1GiiEWSyM3Lw+P2/qlFa+HChYwfP75ckGPjxo0ZMmQI9evXZ9OmTXz++edly07cbjcrV65k5cqVzJkzh/Hjx9OzZ89ydWdlZfHZZ5/VuC1er7csFm39+vU8+eSTbNiwodrrNm7cyJYtW0hPT2fMmDE1vt/54vF4yqzQ6hBFkeTkZARBID09nalTp57Tvdxud7ljuq6zbNkyvv7663NqM4Df72f8+PFMnjy52l2pcnJy+Pjjj9m2bRszZ86s8RrInJwcnnvuOb744gtcLtcZ55KSkujWrRspKSn4fD52797N9u3byc3N5fvvv+f7778vW3Nbspdp5eOjCkVLURR0TcUhCqc2sdcRaihbImAVBHI1ja+cXg4ENTxuD5/NXUy3Lu2xOcJwB33oqgqCgOLzU69uHGMfu4fRE6bz+Avv8/zjf6d+vTp4vCVrGEsNPU3TUXy/iZkgCJhlEzarhV37jvDx7O/4ZtmPOOKScETFkXdkL58XFuPWdYaG2rELAr5KrEYdkASwSiJej7fKgM7ajN/v57XXXuPVV18tt5SkU6dOfPHFFzRt2hSA+++/n2uuuYYHHngAn+/M1QwbNmxgyJAhTJs2jRtvvPGMc61atWLatGls3bqVxYsXc7yaDBpmsxmbzcaqVau45557yMjIqHF/gsEgL774Is2bN+fWW2+t8XXnSlxcHIsXL+bgwYMsXryYSZMmkZOTU65chw4d6NWrF9dff31ZXqz27dszffp01q9fzw8//MChQ4eqvV9Flpwoijz11FO0a9eOtWvXsmrVqmrrCQsLIz8/n8cee4yZM2fWoKe/sX37dp588km++uorHI6qX+AnT57kzjvvZOXKleXO3XbbbUyYMIH69euXHdN1na1btzJp0iT+97//Ab+FPmmaVuWLQXrhhRdeOPvgihUr2bpxI3+LiqShLOGtwcyhCJgFgSCw2uvjv4VOVri9aIKAxSRx9NhxIsJC6XRFG2RZRg8GKE3sFwyq1ImLpmvHlqz6aTvzl/xIiN1KSlI8FosZ2SQhiiVOYZMkYpJNyCYJAYG0jBw+nbecN/47l5827SK8Tj3qXfU3Ihq3QxLBdTKDXxSFkxq0MsuEimKFPi5JEPDqsMLtRbXbGDToFsLDw6vp9cUlKyuLWbNm4XQ6Ky2TmJjIkCFDauRn0nWdF154gRdffLGcKFssFj755JNyKVzatm3Lli1bKlzA63K5WLVqFb179z4jIt9ms9GxY0f69+9Pt27d2LBhQ4Vf8NPvnZeXx+uvv05OTg5NmjTh9ttv56abbqJDhw4UFhZWuexG0zQOHz7M4MGDq03mWFhYyKeffkphYWGlZW6//XZatGhR7rjJZCI+Pp6//OUvzJs374yF6e3bt2fcuHG88MILDBo0iIYNG5bF+tntdjp06MCAAQPo27cvR48e5eDBg1W28+qrr+baa68td7xevXr07NmTW2+9lWAwyE8//VRlPRaLhZUrV/Lll19iNpu57rrruO222+jTpw/R0dEcOnSoyjWuqampNGzYsMrQjEAgwKOPPsqCBQvKnWvcuDGfffbZGYIFJQZH3bp1ufnmm7Faraxbt67MupIkiaFDhxIfH1/h/Sq0tPx+P5IgYBJArYE7yHzK0bjHH2Cu08MmtxvFZCGqbgOiGrcjqLjJ2LqKie/OID0jm0E39iYpLhybLBFiNyOIAn5/EIfNwgND+jF9zhJGvfYxbVs05MZru3FF6yaEhNjK9lb0+vykHstkyerNbNq2j6yTeaiahjnEgVvxUHB4L7EtQ4hp1RVBksnasZZlxS6KNJ3h4Q6STFIFFpdeJrxen79K87S2Mn36dF599dUKz/Xu3Zurr766wnMDBw5k4cKFFZ7Lzs5m7NixzJs3D4vFUu58t27dGD58OA8//HClz1RRFL7++mtsNhvjx49n6NChZ2TbeOSRR3j44YdZsmRJpX3btWsXq1atYtCgQZWWuVC8++677Ny5E4CQkBAeffRRRo4cWaNJgebNmzNp0iS2bNnyu1LkOBwORo0axbp166ocSm/bto1t27bRq1cvnn/+ea644o5+vM4AACAASURBVIoyX5GiKMyePZthw4ZVuYD7888/57777qs0ZdL69euZNWtWhecaN25MSkpKpXVLksSzzz4LwKhRo4CSl+vZw8vTqVC0ZLMZlZJ1hWoVTmwRsIoCGUGVRS6F71wu8lWdiLoNSWrcDkedFETZDIKArgXJ3PoD0z/7itU/bqVR/bokRDtISoghLjoSjxJg5sLV7Dl6ArtZJuALsHbzbjZu30dkeCh168Rglk14vArHM3PIyS0k0m7DbJEJCgK6Waa+bCJc83Ng7yY0TSW+3TVENeuIIIhk71zLBpcbRdN4KjKURJNI4IyuCWjoBDS9WkdrbWTfvn2MHj260rdqjx49KhQdKLG2qkoxtGTJEjZu3EiPHj0qPN+1a1fi4+MrHfZpmkZ8fDwfffQR/fv3L3e+QYMGjBkzho0bN1Y6WRAIBNiyZctFF61PPvmEUaNG4fP5aN++Pa+++irXX3/9OdWRnJxMhw4dqs2rVR3h4eFceeWV1fr/hgwZwpQpU8rloLdardx7772sX7+eDz/8sNLrDx8+zKFDh8rcBmfzzTffVOpOyc3NpbCwsNrt+p555hl2797NrFmzUFW1Qp9eKRVKp81qRdU0XJpWlobm7IusQomXa7XXx7jcImYWFOENiSClSx+Sr+5PaL2mCJKErqroqkpoSnPC6rdAQKdBo0b0G3gH8Y07c6zIytKfj/Hah/PRUtMYFR7KnWaZlhYZu8WMH8jKLyJQ5CQ+xEZKnRgG9ezCxKfv54HB1yKZzcSaJIZHhDElNpp368RwrcNOwfFU8o7uQ3EXE9WsA0ld/0ZEWCTbvQqznB78evnO6+h4NQ27zYZs+mMs47lQvPnmm5W+2UVRpFGjRpVeGxERUeWmC6qqMn/+/ErPWywWzGZzle0bPXp0hYJVSpcuXaqdhk9PT7+oebJmzJjBI488gsvl4q677uKbb745Z8Eq5UKtF7VarVWeb9++Pe+9916Vv7/rr7++ypd0YWEhR48erfT83r17Kz23e/fuGqW7FkWRZ599lsjISILBIMXFxZWWrdDSslmtiJKEU9M4O5DcJAhIQGogyEK3wvdOF25E4hu1JrbVlVjCY9B1DV0LomkqQcWL4izA5/UgxyYRrsMvvx6kYf0dDBp8Gw0bN+ZYejq77/8H/zQJ3BkVTpGqUaBpHPQHWODy8KNX4ViRk0aSRK9OraiTFM+JjBzWbN5D60CAh+rE0s5ixqepaLpOT4eVZcUKSnEBiBJBbxQhyc2oI0oo6xezR/Gh6A5CRYHTVg8R1MGradjsNkzyn2fB6i+//MK3335b6fnw8HBiYyvfj1KWZaKiosjPz6+0zObNm0sSP1YwhKhuOZIkSTRv3rzS81DiT0pKSqqyjMvlwufzXZRNSt59912efPJJgsEgY8aMYezYsee9PvVCLs+qrp4GDRoQFRVVZZnExEQiIyMr9Rv6fL4q/apVOc0VRWH06NEcOnSI+++/vywmqyJat27NP/7xD+bPn1/lS67Cb2ZUdBQmm42sQACR3z4AEuDRdL5xe1nk9pKp+LA5Qqnf6koiGrVBNMnouooWCOD3ulBcRfg8LnStJGhCEEVs8Sn4PZF8vmglXy/6ji4d2mENCcGXn0+jiFAKgkEKNQ2TAK3NJtpGh7PXb2dusZsdP+9mzaZfqC+bSFd8JJhMvJMUT5gokRUMkK8GsQkC4ZKIXVNLPhyaijMvi2AwgMUeijksirDikxWamPmqhl9ViYmO+VPtzvP9999X6T8JDQ2tMrVNVFRUtY7+vLw8Tp48SZ06dc65fYIglGU6qIrK4nZKCQQCF8UXOXHiREaNGkUwGCQyMpIePXr8YRbUV0dNZsGtVmuVlp+qqiV7QFRCdVufeb1e3n//fWbMmEHfvn3p3bs37dq1o0OHDuU+V6+88gpPPfVUlZNgFYpW3bp1sYeFkelXyhZCA4gCfFrsZq7Tg6xrRCWkENf2L9jjk0DTCPoUfK4iFHcxAcWDrmkIovBbhgddR9eDyPYQIhq3we8sYOX2fbhzM0gyy4hCGAWaikv7LdGgALQzyzSPiWRSfjH7/H4mRIWzWVH4r9PL1CIX19ttRIgljnSdkqFrlAB56CCICIKG4ixEKfDh87ppYbFgFYRyVmSWpuELBklMTPzTpHsJBoNs3bq1yjIul4spU6YQGxtLMBhEVVVUVUXTNFRVxel0Vhu24Pf7KSoqOi/RqimXw8/40ksvMW7cuDIxLCgoYNSoUbRq1epPk8NMOJUW/Xxp3759pRM1p+P1elm4cCELFy4kIiKCNm3alM2q9uzZE0mSMJvN1U5oVCxaCQlEhIWRn+UiX9OJkEq+4H4dtit+RCCuaQdiWnfDZHMQ8LhRXIUoriLUgA9d00vEqrINGk75HSxhUVjCorDXqQdpv6LpGgIipdu5curvrGCQHf4gacEgGhBlkoiXTcgC1DNJxEjgOU3oJMAiSZweEiuIIn6vCxQX7aPDsQoC3lOmdWmpzKCKT1WpW7fun2YJT35+PocPH662zO/dCCMvL69cLFdtxWazoaoqzz77LBMnTix3fvPmzUyYMIHJkydfhtb98Rg4cCCTJk2qcgh5NoWFhaxbt45169YxY8YMOnXqxCOPPMKNN95YrRVboWjVS04mJjKS9GPHOKGqxEgyfnRkARIliSMBFVtsEmZHOEGfB1deJl5nIYIolSReqOFuMrqmgiBidkTgsYXgU/1I8ll5twANnW5WmWayiSezc3k2M5vjip+MoMpJq5lUEaIlCYcIVkp2oi6SZEyyzG+RqSqK20mKJJJikqjIXXtA8WMPDSX5Iuc0Kt2c81JYc8XFxVXGSEHJ8LBHjx5ER0dXOJyo7k2s6zrR0dF/irzmgiCQnZ3NqFGjKhSsUj744AO6d+/OLbfccglb98ekbdu2PProo4wfP/68rnc6naxevZrVq1czdOhQxo8fX+UGMxWKVkhICK2aN2f79h2kBYJ0ssj4dBAQ6GAz85PbTXHafkLr1kcyWRAk+fxNTF1DlEwELHaOeD2kWORys5UWQcCnaax0e/DHxJCdVI9rOl1Bbw0WffMN83NOEiebCBEgXJLI83ooCosn1OpA17WSkAtdw11cQAuzTIJkInCaA1MSBHJVjSNeL0n1UmjWrOKp3d9DIBDgk08+YeHCheTl5SHLMsnJydx7770XNbWuqqrV+ovi4uJ46623aNy48UVrR21i7NixpKWlVVnG7/czevRo2rdvT8OGDS9Ry/6YCILA008/zcGDB/nyyy9/V12ffvopGRkZfP7555UOEyudIuvcpTNfzJ9Pqi+Ax2EtG7K1NsuEyDLOrKMohXk44pKQLVYUUSqxas5rWKUj20NZ5zzJVadSOmun7mcXBE6qKjNz8/nGrfDUqAe54bq+hIWHI5st/KVnd2bNnsOatT/RoGtPCmx2jm/bgJaVgeZxYgoJL4m6D/ixKE6a22WsIrhOM7XMwKFAkCxF4crkejS4wB9Cr9fL8OHDmT59erkp+W+//ZbXX3+df/3rXxf0nqWU+gmqojQjgEGJ1ZiWlkaHDh1ITU2tcur9119/5cUXX+Tjjz/+08X1nSvh4eHMmDGDlJQUpk6dek5DxbP5/vvvGTduHO+9916FhlCl47guXboQHRrKdq9CTlBDFkqCLxMkibZmMz6/D3fmEXRdRbbYEESphrkUKkAvEa0dukB6IIhFELAJArIgsNGr8HJ2HtuTmhBTtx4/rV6NIEnIFivTpk0jLjaW224aQLP6DbhywB1c1X8wN4x4jqRmLfFkpZWkmBEFFFcRcWi0NMv4T2uoQMkQdJfixymZ6NC27QWfGZoxYwYfffRRhTFERUVFjB49ulpneWVIklTlF8bhcFQb2FdQUFDtEPL/E0OHDmXJkiWMHDmy2rKfffYZX3zxxSVo1R8fh8PBxIkTmT17NrfffnuVYTTVMWfOHLZv317huUpFq379+nTt3JlDXh8HAyV+DlWHMFHgSpsZHXBlHkXz+5HMFkRRovy2ERVxupv9FJqGbLHhsoayyqOQo6qs8Pp4KbeA1wuc6Ff14fqH/0OP2+5ly5ZtzJ09G4vVQnJKClHRMUgmE7LFhqYG0YIBLBYrlpAIpJCIMqX2OwuoJ0KK+cyhoSwIZKsa2zxeoiIjue6662rQh5pTUFDAnDlzqiyTm5vL8uXLyx0PBoPVTlk7HI4qwzMiIyNJTEyssg6Px2Ns8Hoat99+O/Hx8Tz++OOVLm0qRdM0nnvuuWrXEv5ZcblcZGZmnjEJ069fP2bPns2yZcuYOnUqt9xyCzExMee0c3peXh6rV6+u8FyltZhkmb7XX0dAVfnR6ysLfdCBlmaZFFnG5SpEKTiJaJKRamKdCCKqz43mLvrNQX5aQ6wxdfnKF+Th7HzeyCvkp6BOu8H3ctWQB5DCIohr25mWXbuzYP58jhw+zB1DhhAbG1uSXMweAgiIkokj2zeSnnoIe1wiOhD0KUieYtqZZaSzBFMCDgYC/Kr4aNu8OW3bt6u+H+dARkZGlRHDpVQUR1WaG6kqEhISqoxfslqtFS7+PZtffvnFyEd/itIvYHh4OBMmTKjWUk1LS2P06NE1ijX7s/H+++/Trl07XnzxxXLnOnTowL/+9S9mzZrFjh07+N///sfdd99NgwYNalR3enrFGYSrlL5u3brStGkT1hc7SQ2omE6ldmkgm2hrNeP3K3jzsxAlEyazheqybgmiSNBZiOYuwBYacYb/S9c0TI4IpJSWFMeloJmtXHP9QJr36o8qCKg+BV0QadP3JoqK3Hz37WJ27tjBjOkfk1dQgCk8Cskk4y7IY99PqzBFxoEoIggifmcBVsVNR5sFnd/sQQnw6jorPAqKqnHzwJsv+NZNiqLUaHwfExNT7lhBQUGVa7CgJEamugmQbt26VbqusJSlS5ee9wamR44c4eTJk+d17R+R08X76quv5qmnnqr2mq+//prp06dfzGb9IfH7/eTk5PDZZ59VGlpjsVhITEzktttu47PPPmPZsmU888wz1aa7qSyEpkrRSkmpz4AbbiBb8bPE7S0rbBKgo9WCQ1VxF+aWbAdmsdUs45auI0om7OHRmMyWs97uOrbouphNZupERdO0d380k6kk9xagBgOEJqXQqnsfFs2fz7GjR4mKjMLj8WAymZAtZg6sX01RsQdzaERJMKumohTn0VyCBJMJ9ayh4a+BID8WOmnbsgV9KkgF8nuRZbna9WFRUVH06tWr3PH9+/dXaf3UqVOHfv36VduGPn360KZNmyrL7N27t0YBgmeTl5fHAw88QN++fVm3bt05X18bGDlyZLUzvKV5vfbs2XOJWvXHoFR40tPTeeutt2p0TZMmTXjttdd47rnnqjQSKluFUaVoCYLALYMGkZJcjx+KnOzzB7GesrbamWUSZAlvcQFBjxPZYq/RzKEgSoiypcwKOsMPJohofi+B/CwUVzFHN/+IPzcbs81eskO1pqGLEg07XU1eYRHpace4aeBAPE43dkcoJ1N/5eC2nzFHxQMlIRia4sFfnE83uw27IJTNSsqCgAosdnko8PsZdMstVcaGnC/R0dHV7mU3YsSIsoRxpfj9/gr9XKdz00031Wjo53A4GDZsWLXlXnvttRolqCvF6XQyYsQIVq1axc6dO9m3b1+F5WoSCnMhytQk7OZ87mO323nppZeqXcOXmZnJ6NGjq1zyUtN21DR86FIFQVd2n9Mt+NIU2TVl2LBhla6gEASh0qwS1XrGmrdozi0DbuJEoGTxsqLriAhESAKtrVaCrkL8zgIksxnJJJfzVZ2BroMkIZltpwSufE4rQZSwxNWlwONh5Sfvsfq9V0lduRjd48JktaGrKlGNmpHYtDUL531FcXERRUWFBKwOdn7/DT5MyPYQ0EvkyeMsIF710cpixiwImAUBiyCg6jrL3F5WFRbTpXNnbr/jjuoexXkRHx9P165dKz3/0EMP8Z///Kfc8TVr1lRpudSvX58nn3yyxu248847GThwYJVlUlNTufvuu9m1a1e19e3bt48777yzbOZs6NCh3H333RWWrc5XVpKdtnp/WnUZHAKBwEX7Enft2pXhw4dXW27hwoV88MEHVZYRT+WFq4qapHSGmj3b6qjumZUu56qI08NpfD4fI0aMYPPmzdXeE0osqcpGIfXr1y/bM+BsauTOf+Df/6Rts2YsKyhio8+PLJQEmrayWNC8LnzOAgRRQpLN6NXMIAqiiCibKx5K6iUblVlikghv3hlLYkOOHktl9WcfsPKdl0n97iu82RkgiLTqcR05+QV88uGHeDw+juzcTFb6ceyxieiaVpbDy5WXSWeLmQayiRPBICu9Pt4oKObh9CwmZ5wk3+3BajKhVbMZ7fliMpm44447yi0AlWWZp59+mkmTJpWLo0pPT2f06NGVjulDQkKYNGnSOQWDWq1W3nrrrSoFFGDTpk3079+fMWPGsHPnToqKiso2THA6nRw6dIiXXnqJG264oSxzRL9+/XjzzTcrjfBPT0+vMlOopmk1mqyoLizjwIED1QaFpqWlVRl7BVSYpRVKLOKzM7tWxPPPP8+yZcsqPe9yuaq1aNevX19lVo1Sqts44tixY9WuG3W5XFU+E03TKn2RWa3WM2YF09LSuOOOO6odJQBlu2tXxLBhwyrdjajCdMtnExYWhtVqZfGy5WSoOh2tFmIlCZ8O37vcmMKjccQl4Vc8BBVvhcotiBIIAqrPg9liwxIRg89VjBqs4O0oCEhmG+bwWCxR8eiiSH5WOsf2bCNt63rcGWmERceSc+ww27duRvEFSDuciqVuIySrDeHULKKSfxJyj9POInMoEOSdAiff5Bbwi9tLWJOmdOveneSEBDZu2MC+vfvo1af3Rcnu0LBhQ3w+Hz/88EPZsfj4eMaOHXvGTIqu66xfv55HHnmE9evXV1hXVFQU77zzDnech2UYERHB1Vdfzd69e6vMj1RcXMy6deuYOXNm2W49c+bM4b333mPChAksXbq07MN211138cEHH5SLyXG73WRmZvLLL78wfvz4SoeOpezZsweHw4HD4SA0NLTM11EajrF8+XI++uijKr9chYWFHDx4kNjY2LLtz0wmU9mGFHv37uWVV17hl19+qbIte/fuxWq1YrPZsFqtZdaA1WolISGB+fPnV2kpKYrCihUr0DQNm82GLJesGMnPz+fAgQO8+eabfPfdd1W2ITMzk927dxMdHY3JZMJutyNJEsFgkLy8PI4ePcrMmTP58MMPq5y1zMnJIT09ncTExLKlY4IgoKoqBQUFpKamMmXKlGoTCe7ZswdN03A4HFgsFqxWK4IgsH//fhYsWHDG8ygoKODbb7/F7/fTuHFjwsLCytVXWFjIs88+y8aNG8udu/feexk3blyl8ZKCXsN5brfbzVNPPMkXc+dya1wMz0SFUaBqPJGdS2FSM5K79MFdVIAzN+NUzFbpHQR0VUV1FWIKjSRQnIfdEUpE47YUZR/H53VXEb8hlKSW0HQCzgJ8uSfw52cT9HmxmS1Y7A6KXE4kAWx16mMKj0EL+EHX0PwK/rwsRJ8bTdXI9/lxOOx07tiRPn1687d+/UhJScHjcfPa+Fd59+13ePudd/j7fffW5HGcM36/nxdeeIGJEyeWxV41a9aMQYMGERcXh9PpZO/evSxZsqTSt0/37t0ZN25chTvgnAvZ2dm88cYbvytyOSkpiccee4wHH3ywnIXldrt57rnnWLx4MQcOHDineuPj43nttde4996S38OoUaOYN2/eOcdBNWrUiIkTJ3LzzTczZswY5s+fX+3ExtlERkZy6623Mnny5LI+BgIB/vnPf/Lpp5/WqA673V6WwHDt2rXs3r0br9d7Tn1p3Lgxb775JgMGDGDdunU88cQTHD169JwDgvv3789///tfEhMT2bx5M4899hh79+6tduu403E4HNxwww28++67xMXFsXDhQm6//XZ8Ph9NmjShoKDgjFnoDh060L9/f1q0aEFkZCSKonDs2DG+/fZbVqxYcUbdNpuN4cOHM3r06CpTIdV4ft/hcPCfZ//Dnr17WbR3H03MMv0cVuqaTGS7i9FVFamiYZ+uI5rM+FyFKDklcRdSMJagT0EL+NB8HgI+hYDiRfWV/AT9ftSAH10LlmQ+PeWfQtchoCDoGkFdwRsMIssmNE1Dyc2AnOMICCheD4rXg81mRzKbiYyO5o4b+3PzwIG0atMai9mCz+dD0zTsdgePjhjB2jVr+d///scdd91Z7bKX88FsNjN+/Hi6dOnCxIkT2bZtG/v37692kandbqdFixY88MADDB48+IIsSo6Pj2fixIkMGjSImTNnsnDhQnJzc6uNM5JlmYSEBO666y7+/ve/V5q4LxAIsHfvXtLS0ggLC6txGImu6zidzjPSMv/666+kp6cTHh5e46UymqaRkZFBVlZWWR1Hjx49w4KrSVv8fj/79+8/w7Euy3KZ36a0/qrqCAaD7NmzB7PZzL59+zCZTNU69M/uy4kTJ8ri+HJycti5cyeyLBMZGVljH14wGOTIkSNly7Xy8vLYvn07giDUuB5d1wkEAhw4cKBMeEstrtDQUCZPnly2jOfbb7/lxIkTbN++vSyyvaKU3YIgEBERQd++fRk2bFilKbvPuKamllYpq1asYNgjjxIoKmZkfDSHfT6+1iSaXzsEFSg8cZgz4rV0HdWv4DuZhpJ5pGToZ7ETFGWU4iICfoUQh4Pw8HAcDjsOhx273YHDYUc2mcq2ZhclCV3XcXs8OJ0uigoLKSgowOfzIVlsSGYLQcVLUHHTvGVLGjRoyM8//4xPUZj87jv06t0bVVVZumQJx9OP06pVK67o1LHsDTpu7Fg++vAj5sz7kquqiYL+vSiKwurVq/nuu+/Yt28feXl5eL1eNE1DlmVCQkKIjY2lbdu29O3blyuvvPKiJiXMzs5m3bp1bN68mcOHD1NQUICilGzfZjKZCAkJoVGjRnTv3p2//vWvFcaUnY6maZw8eRKPx3POjnFd14mKiioL6MzOzsbtdp+Xgz0mJobQ0NDfVYfFYqFOnTrlRgNZWVk17p8oilgslpKt+c4zgLe0Lx6P57w3xJBlmfj4eGRZxuv1kp2dfV7tMZvNxMfHYzKZOH78ON9++y2RkZEMHjy47Dnl5uby008/sW7dOn799Vdyc3PLfgd2u52wsDCSk5Pp2LEjvXv3pnHjxjWOmD9n0QL4bOZMxjz3PGFqkBSbhT0BjUZ970C0OCjIOIKmqiW/TEFAEkUCeRmo7mIQRAJeN3iLueKKK2jQsAEJiYkkJCQQGxtLeHgEYRHhhIeHEx4WVmGKm0AgQH5+PseOHOG7b77hf18vIr5DD+xxieQf2EHW1tU8M+Y5Hn70UT6c9iGfTp/Op5/NJD4hgQ+nTqWgoICBt9xCh7O2RPp20SIeGfYQ9z/wAGNfeP5cH8nvIjc3l+LiYlRVxWKxEBERUaEf4FLi8/lQVRVZlmtNlk6DPy6KopQFSlut1moDS6vivMK/777nHgry85n4+hvku9zYzRYCbidWa8ip2KtTTjm9ZJvX0JQWWOyhCCYTitOJ/9DPvPLqK6Q0rHwzhcoofVtEhIeRkX6MuYu/xxZdF2t4LNbIOHRR5uCp2Z8b+t/A7C++YM/uX0hKTqbv9ddTXFhIWloa6enpNGvWnCZNmyCKIs2btyAiIoJtW7fi9XovabrlmJiYaq2XS011EfQGBufC6RMav5ear2A8DUEQGD5yJE89/RQ2q5WgqqIq7pKA0bOsI00N4nEWUZibiTMvG3/AR0DVfvcOzoqiYLVYQdNQnPm4cjJQ3E40UeLEqSneOnXqEBsby+HDR7BYLDRs2BBN10sWESclYbfbyuJY6tZNIKFuAulpaVXOrBkYGFxezku0Shk+cgTDHnoIv99P0Oc7LSL5zBGnrgXR/D58bieKsxCfP1BtPE216GC12TDLIoVZ6RRmpREM+BFNMoWFhbhdLkRRJDEpqUzELBYL8XXqEOJw4LDZiIiI+M0xq+skJyfj9/spLir6fW0zMDC4aPwu0QK45pruhIQ4CPiUKqLhS/xbgiAgiAKaIJKZWfXMS3XouoYsmwhxhJT40EQR0SRjks24XK6yGajI6CgKCwsJBoO43W6Op6eTlZ3N4SOH2bJ1a5lT0+v1EBYahizL/+8TuhkY/JH53SkNTHLJ7FLQ563Rfm4CAqogkpl1/luCQ8ksk8kkY3fYKAxop5YImZBkGY/bzcmTJ2nStClWswW320NWxglCQkNp26YNkiSho6NrGpJkoqigAL/fT35BPpFRUfxfe3cXHFddxnH8e/a87G52s3klG5rYSHBk2kJbWmrbGUTTUEcuSrgUO1BvZBzGcicX8nIj1hnEGcfiHcMNY3VEFKudwUGEmKKFatukCdKkSaClmw1psnnbJLt7do8XeZlaU9ImTZNTfp+7XJyZzUW+k3P2/J+ndplnxIvI4i05WrY9vUAik8tO3xp68wz5u4RhGLgYc7dsi+V5HqZlEXYcCpnpB/9GwMS0HNIjKXq6z7Jjx1cIBAzGx8cZGhzEKxTIZbPkXJdCoYBhGJimSTgcZmhokPbTp9lw113E4/ElfTYRWT5LjpZpmlhmgHxmgnwuB8YC/2kZgGlzIZGY2Yu4+DtUy7IIh0J4w2NznQw4DulMhg8/+A8nT5ygq7OTU6dO8eQPnsRxgti2RdHMUZEtd2+mYVcDU5OTvPTSyyT7+/nRgQM3zfowkZvRkqNVHI1RVBTlXNdZLra/i1FUglkUmz44Pc8Jc88DOxxlKDVMIpGgZoFV51dmYFkWoaAzs2fRmnlxNYTjBHn9D6/zTvPficer2P2N3RhGgI6ODs59/DEPPPBN1q9bR87N8+qrr3G05SjvHj3K3kcfoXEZN+OIyNItOVrxW+N8+Y47OHHi3yTbj1NUUkaosoZg5RrM8PQYXGBejQAABNhJREFUYM8rXPKQ3sMOhhgeTHL+3LlFR8sIGFi2TVE4hDs1TibVT34yTX40xXh6gi/W387Tzz7Dps2b546+tLW28eLBg4ykUvzx8J/4tL8f23aov/02nvvJAR7eu1cP4UVWuSVHy3Ecnnr2GdbU1vLWm2/S293Nxa42ooMJwpU1OBXVBIIzQ/w8Dw8P07IZHp/gkyvMgL4aBga2bROJREn1dOBGizGN6QWwNbW1fPexx9jV2Pg/12zctJGDv3yRdDrN1OyxGcchEol85px1EVk9rmo0zUKKYzHu+9p97GlqovYLtWQyWc5/1MP4QB+FsYsUJtNQyOMBAdPCtB1SiXNs+NJt7FzkOb+pqSncXJaTJ0+Sz2b5zr5HCYXCfHjmDM8d+DHf+vbD815nWRbhcJjiWIxYSQnRaHRZDkiLyPK4rlscysvLeWTfPvY0NdH8TjO//c2vOfaPfzJ6oQcv0YtTFMMKRwg4Dm56jJ6eXrLZ7KKiYRjTAQoEAjTsamD/E/s5dOgQzc3NlJWVXc9fS0RWkeu7emZGaWkpTQ81cf/u+3nv2DGOHDnC6dZWPk0mmZwYpTBRwHSn6OzsZGBgYMG9fPOZfV0hFAwynh5naGiIiooKKioqlvw6hYisXssSrVmRSIRdjY3samxkbGyMjvZ2+vv7cV2X3//uNVpaWuhL9C0qWrOblW3bxnXzuK5LdXU1sViM022fPZlSRPxrWaN1qeLiYnbs3Dn3c8AI8OfDh+k8c4Z7ti08d/typmlNf4NoWbg5l0wmQzxeRWlpKR/MjIa9lo22IuIPK/ZXvW79OtbU1PCv48cXNYgsYJqAge04uG6OXC5HKBSmquoWhgYHSWjNu8hNacWitbZuLXdv2UJLS8ui5pRb1vRgumDQoeB5BINBCp5HPl8gm8sxokkNIjelFYtWUVGErVu3cuH8edpaF96zd7lAwMAyTSKRCD29Pbzwws94/HuP85c33qCqqor4FZZAioi/3bBnWvPZtn07xSUl/O2tv3LvV++95uudmdHE/cl+2tvaqay8hW3bt/P9J/avukmgInJ9rGi0tt6zlbq6Ot5/7/1rfnBeyOfJ5XJUVlYSjUS5ddMafn7wF1dcpS0iN4cV/XotEonQ0NDAR729/OqVV0gmk1fcqnypyfQ4yUSCiwMDGIaB49gEQ0EFS+RzYFHbeK6nttZWHtrzIJOTk8Srq6mvr2fjxo2srVtLWVkZpWXlFBdHcd08w0ODjIwMMzo6yoVPLnC2u5vus910dXXyYFMTL1/lAk0R8a8Vj5bruvz0+edpfvttujq7SKVS/zdC0JpZK37p0kwDKHge4XCYrzc08MOnn2LDnXfe0M8uIjfeikdrVjKZJNnXR29vL8m+PkZHRhkeTjE2Nr0R17JMLMvGCQYpKS2hvKyc8ooKamrXsH7dBmIlK7snUERujFUTrfl4nje34guY2/ajyaIin1+rOloiIpfT4TwR8RVFS0R8RdESEV9RtETEVxQtEfEVRUtEfEXREhFfUbRExFcULRHxFUVLRHxF0RIRX1G0RMRXFC0R8RVFS0R8RdESEV9RtETEVxQtEfEVRUtEfEXREhFfUbRExFcULRHxFUVLRHxF0RIRX1G0RMRXFC0R8RVFS0R8RdESEV9RtETEV/4LVyqAYkzh3NcAAAAASUVORK5CYII=;" vertex="1" parent="1">
          <mxGeometry x="10" y="10" width="280.93" height="140" as="geometry" />
        </mxCell>
        <mxCell id="cwQcEkth57no9mUlX8GR-12" value=":Object" style="shape=umlLifeline;perimeter=lifelinePerimeter;whiteSpace=wrap;html=1;container=1;dropTarget=0;collapsible=0;recursiveResize=0;outlineConnect=0;portConstraint=eastwest;newEdgeStyle={&quot;curved&quot;:0,&quot;rounded&quot;:0};" vertex="1" parent="1">
          <mxGeometry x="369.39" y="70" width="100" height="620" as="geometry" />
        </mxCell>
        <mxCell id="cwQcEkth57no9mUlX8GR-21" value="" style="html=1;points=[[0,0,0,0,5],[0,1,0,0,-5],[1,0,0,0,5],[1,1,0,0,-5]];perimeter=orthogonalPerimeter;outlineConnect=0;targetShapes=umlLifeline;portConstraint=eastwest;newEdgeStyle={&quot;curved&quot;:0,&quot;rounded&quot;:0};fontSize=14;" vertex="1" parent="cwQcEkth57no9mUlX8GR-12">
          <mxGeometry x="42" y="180" width="10" height="380" as="geometry" />
        </mxCell>
        <mxCell id="cwQcEkth57no9mUlX8GR-23" value="" style="html=1;points=[[0,0,0,0,5],[0,1,0,0,-5],[1,0,0,0,5],[1,1,0,0,-5]];perimeter=orthogonalPerimeter;outlineConnect=0;targetShapes=umlLifeline;portConstraint=eastwest;newEdgeStyle={&quot;curved&quot;:0,&quot;rounded&quot;:0};fontSize=14;" vertex="1" parent="cwQcEkth57no9mUlX8GR-12">
          <mxGeometry x="47" y="200" width="10" height="320" as="geometry" />
        </mxCell>
        <mxCell id="cwQcEkth57no9mUlX8GR-24" value="new version request" style="html=1;align=left;spacingLeft=2;endArrow=block;rounded=0;edgeStyle=orthogonalEdgeStyle;curved=0;rounded=0;fontSize=14;" edge="1" target="cwQcEkth57no9mUlX8GR-23" parent="cwQcEkth57no9mUlX8GR-12" source="cwQcEkth57no9mUlX8GR-21">
          <mxGeometry x="-0.3258" y="-5" relative="1" as="geometry">
            <mxPoint x="56" y="215" as="sourcePoint" />
            <Array as="points">
              <mxPoint x="86" y="190" />
              <mxPoint x="86" y="210" />
            </Array>
            <mxPoint x="5" y="-5" as="offset" />
          </mxGeometry>
        </mxCell>
        <mxCell id="cwQcEkth57no9mUlX8GR-8" value="" style="shape=image;verticalLabelPosition=bottom;labelBackgroundColor=default;verticalAlign=top;aspect=fixed;imageAspect=0;image=data:image/png,iVBORw0KGgoAAAANSUhEUgAAAPIAAADxCAYAAADx/OoKAAAgAElEQVR4nO2de3Qb133nPzMDgk+RIkVJBElTb9MP2bQky0pYOVXtOHXiVNG6VbM9qdqm7WlXW7Wr023ds+ttso+oTdSejZqq0fYkTZs4mzZl4qpKN/FWjuuuYiSyRDqyZUW0XiZCChJFiRT4BjBz94/BY/AiARIAKej34RliMHPn3juD+c7vd3/3zoymlFIIgnBH4wIwTZO+vj6uXLmy0PURBCFLmpqaWLt2LZWVlWhKKdXT08P58+cXul6CIORIc3MzO3bsQAe4cOHCQtdHEIQ5cPXqVQBbyKZpLmhlBEGYH650Cx966KEZN8olPpZt2rnG3DJtl7w8m/xn22amPJzrMs3PNX269flIN1O52dYv2zKzLTfX8nOtfyay+a1zPUdnSz9XbWialrIsrZDr6uryUoFc0mYrkmzXzeWHyeX7XE78XObnsn6mZfnIYz755rJ+vvO5rJtPmtmWF4p05elFrYGwYGiattBVEJLI9jfJJp0IWRCyZCEvhrOVLUK+i8nHiTlbHuIJ5I+ZjmXBhSw/ZPEo1LHONd/F/psvpvrl69jeERZ5MR34bHDWN5v52fIQFjeZfqti/oZ3hJCLhYinOMegEGXMlGc25SWnKea5kI+y7hohpztY8zmAd8oPne/9vtspVDNjvr/JohHyXHekkCdlLnkXWxz5Lu9OEXexhHGnsWiELNxZzMXS57JNNvGExSTW+br2uaRLhwhZWDQstubKQlxANE2bU/4i5BxYDBZgoeuw0OXPRL4DXsUufz7pRciLgEKcQMUY7JFt+Qsl/sV80cmGXKyzCHmRUezg3UIFj/IViS90z0Ou7nU+rbJzO+eUDhFyiXEnWqH5BLyKVZd85VGo/RAhCzGiJ1m+XOpst8ll/VzqNN+88x30KoSY5yTkO/GqX2wW0zDNu3lQSD67xHLJv9hDcEvWIt+pQw1zKWuxB5EK6RrPNe9iWtFsxJyv41KyQk5HNmKYz5jbUrRyhQyG5RpsmmtdFsoqZ5tPPs6btI/6uTU8MuuGCY9Sif1LmMmZnB+ZEilY5bBtxse1oGJVz/7ZXLFKzJ6/ski3Kl16y7JmLTtSaSyVmjYxnUKpPDzjS6mEPc2ULtvnnKXbx1zSzpQeIsclw+pszxXLUuRyPs/nkT+zPe/Mia5pJGs/rZBv3hrOrRKxfwkzOZNOGNkUPOsWavY0TiFnuy5jfVW6Wqm0Qk5Xt7QiSVeHpHLS1yep3AzHIrXM2bdT8UJnrnvWF7z0x2hOz2yb4feM1WbWh+PFUs5KNvnNXFb225aXGUCiku8q11oQShURsiCUACJkQSgBRMiCUAKIkAWhBEgbtV67ZnVOmeQrap0z2Uats8pq5ihn2m1yirJniFqnzTfbhNnsfXblzlpmFpH/S1N+XgucnTHN4OCNaK3SJ0jTpZqubs2qngdV6yw1untIK+Q1q1cVux5CCXD2ylVeuPjd7BLnMgYiTdpH1VoeNEXIUcS1FoQSQIQsCCWACFkQSgARsiCUACJkQSgBRMiCUAKk7X668m5fTplIP3KWJZR4P3LllMaeFU/OmCbWj5zD3T6Z+pGFOGmFfPnKuzllIrcxptbrbr2NcZNqTpO3s16eDOWlKTNj3YRkxLUWhBJAhCwIJYAIWRBKABGyIJQAaYNdmzd15J7TgsUj8hO1jmQ1h+S5BueySZZ91Dpvuc0eMcxTPjnlllOec84/j+XOvajsC/u+18vU1FTCsrRCrl+6dH61EgShYBiGkbJMXGtBKAFEyIJQAoiQBaEEECELQgkgQhaEEkCELAglgAhZEEoAEbIglAAiZEEoAUTIglACiJAFoQQQIQtCCSBCFoQSQIQsCCVA2tsYS4lgMMjIyAgAw8PDBINB3G439fX2UxiXLl2K2+1eyCoKwrwpKSH39/dz7do1AoFATLTZEhV3bW0tTU1NeDyetPd9CsJi5I4W8tTUFFevXmVgYAC/349pmgAsbaijYkkZtdXlKCPMtDVGWa39BAYNHawllJdphEdNlOVmcrycm7emMQNTXL9+nQsXLmAYBh6Ph6amJu655x4qKioWclcFYUbuSCFfuHCBS5cuMTw8DBAT3VhVP3rtNJbrKiiLaaLihXBCDmOYmsFYuJUvvlyJt9cEygGoczfy9DqNzuYw6qqf/v5+Tp8+TX19Pffeey9r164t5q4KQlbcUULu7+/nzJkzBAIBXO5yJpas5Nx0BYN6DT1nx/nzZ0KELYtgOMSkOcW0GcRSVsb8NGOIX37yPi4P1nLNviZwe1rnm+fgm+dcQAPPtMMvbJlkbGiMkydP8qMf/YiOjg5aW+Ul28Li4Y4Q8uDgIGfOnGFoaAijzMXEynH6qq/x7TfrearjO4QmT/GeFbWMWM+A0jB1F9XGMkKhYV7q38rF0XI2NYzywNIehqcuoaFhaAbVrkrq3T/iz369lb85fg/H3winlP2vPtj1YR+jDQFqAk1M+A1OnDhBY2MjHR0drFixYgGOiCAksqiFPDw8zNmzZ+nv70c3dCYbx+gp/1em9UnKrAp+quMyvslLAARCw3z13a9gKRMLC0tZWCgs/o5NK5/gBwP/hpPXn+SDq69zY+oCS41aynU7Wj1t3ebXnw5T7W7j6EnH0wyVYmwCPtd1H7/1sz5u1foIVZrUj7Rx64bOd7/7XTweDx0dHbEouCAsBIu2H7mvr4/jx4/bIl6u0+15mTeq/gVTD6GhMRWeYHCqDw0NDSDyGf2PFl/qm3iFrSu7mQwZXB/fRjpn21Im7c2a/aKi6BThrT6L3zvSijbxIBiKa/Xv8O6abtSKafx+P8ePH+fChQuFPyiCkIFFKeSenh68Xi9GhQvfmrc5VfMSIdc0aBqaFpVr5FOz53VNQ0NH0zR0opMeSakxELgPlEW9exSlzJQybwyt4jMvpi63H26sGJtQ/MEXa6k0qjA0HXeZm2sNffStfpOyChenT5/m9OnTBT4ygpCeReVaB4NBvF4vfr8fo9bgzYZXCGpBdKVhxiRJzAbXuhso05ejo5iwrlOhN6KwmDRv4Z/yoWsWoLO++nG+7a8HFI3lGoa2jHLdjaHZ17GRYDvH+zyA31GbdG9gVLz59iM89MBZRkKDlJutTAUreL3x/9JhvI8LFy4QCATYvn27DDIRisqiEXIgEODEiRMEAgHCy8O8U+fFUhaaAiIW1orM6SiWV9zPi+9+LGIwI4pTivV1IwxNVvLAij9iJHST9TXbOX7pWZRlO9R/37uR33l4kClzDEPXWeKq5z+91gBM84Enm/nnlweSapYo6K8c1+H4QwD8lz0jBEYNdGMHPcte5sHy93D9Ohw/fpzHH3+c2trawh40QYiwKFzraDtzbGyM8ZZhfPU9aBoRd9kWseZwnd2Gm5cHPhwXsYJ6d5CnVh+kpe4w02ENb98nuXX7k3zr/M8xFdTtdJZifBr6Aj9BU9Vyllcso6qsJrLO4o2xCT7wRPT9viqWd+x7bLI/XvpBHW9dqGJ0tBy3XsbbNT9g8p5hxsfHOX78OH6/P3lXBaEgLLiQA4EAXq8XSykm1w4zXHMFnagNjghYs1u7eqT9a1omnStuJgSmHvecZWR6iLHQCE+s+Rs6Wv4jO+45F1lvgWWLFaX42o/KeG1gK77AJt65tRYsC2UplKXoGRvnyceb0gjYMavsmdPvwGtndVY2hCjTynDrZVwo+yFj6wZRKLxeL4FAYAGOqnC3saBCDgaDnDhxgnDYJLwuxHBZH0RscDRM5QxY6dEQlqaja1/nJz0DoBSVRpgp9V17OTrXJi5gaAbnR/+Rn15zMSJiFRezpfjHd+Bwt8HhbgMVW26BqTg/PUVrUyUxt9oh3pSGs1K8enoJbt1Fue6mXHdz2TzLjXuuYJomJ06cyGnMtyDMhQUVctRi3fSUMaSfi1hgIlY4YoFjkxGfj1jle2peA6X40OozTIRvo2NgaAZGRNCGZjChf52myknbKquo5bVigsZSYFqOT4vpUJh1D9amF6/DCzCUwgDe8UGVqwq37qZcL6NCL2dQ8zHaci3mcQhCIVkwIff09OD3+xld2ohWfyYm4KhVjf5pSXOGZtiutqbj0qr4uXVvcyv4T+iajqHZ6w2MyLzOdHiCx9edQEXc51QBp5lMi7eHxnjPI8viFY6KFyJTXOR7dwXR0SnX3RExu6kwyrlR0Ud4+Rh+v5+enp6FOdDCXcGCRK37+vro7e0lWF5P9ZrLjIV0VOTPilplhzutnH9KRbqNFNcm38JSZ9A1A5S9naWUbdGVZqfXFEE1YAs3EvACEgd9RFzn+BgQe+ZWZZiKMo1Q0EpYnjzb5plijDIsDMKWae+HsseVTay8iXltJb29vSxbtoxVq1YV7sBmYGhoCMvKPOZcKC7Lli3L+y2yRRfy8PAwJ0+exFVRzfXlsMQcSi9cRVy8moaKLAfHoCst8qHA1OxPTVOsqFiDprlQSjEavsbN6X7q3UGGJ10O1xhUgpgdEerIsptjQd77yDL+3+uDkeXRvUhsJ//+n9fyJ/vuZcq4hEszcOtLmDBHUEoRDKzjM6/Cnz5dxcmTJ6mtrS3qcM5XX31VoueLDLfbzTPPPJPXW2OL7lqfPXsWgL98ZwmNy87GxJvyF2sbx5cZmhFxoSOfkTZxdFl0OnnlGf729E7+7vRHCN7+NSqMCn76/rfxVE+DaaHMpHayaQe57E8z8mlPZjmOZnJyBNu+EEwHTT77t7VUGJWU6WV85i/X09f7KEvUfbxysprJEHz2+7YzHt3/YmCaJoODg0UrT8iOYDDI9evX85pnUS3y0NAQ/f399IWX88SWKSxlxoZYauBwo53uNDjFo1BxS0z8U4u41Lqy2OTxc2VoFSjF8Ysae7b+FBPhIEQDXQ4Rxi1xqkVGwcWbo9RVu7g9HiJelcTg1x/8gpv16y8zHYYlZXVcH7H4wrcAqgF7u4tDJu/crsYy+xkcHCzKXVOGYdDR0cHZs2clcr6IaG1tzfttsEUV8unTp9F1gz/v1vncv7/KhKmjK4WKutSahaYictbirjQkxY4V9n0RgKY0LE3DQmFiu+C4XmFdw24u3agEBV/5/gORqDVx8VqRHB2DSiynmx1hctqi4746Tpy+Ed8Rx3qAods665RJme7CVEEea3fx+vlQyv5/6fUQf/ykTk9PD08//fT8D2gWtLe3097eXpSyhIWjaK51f38/w8PDXJyq530bdYLWbXvkViQCHbvZweFOG9E+Y/RYFDrZjdYjk6HpNBjvZ2XZ+wCLxqrp1K4mh8sc7TO2TCs2RSPWCWktC9xJF4EY9vevvzJNlVGDoRuU6S52dkbWofjkr+ix+cA0vD1cwfDwMP39/cU69MJdQNEs8tmzZ3GVlfP5kwaf+fhYLLKso9kWWUu8ptjW2LB1o5Fghc3IouiNijoa4eln+PLZFRFre5/d1RQd0eW0wJHvVoJ7nTTvbAcDo1Oh+JfoCsfXsUmL/qttNHku2g0DTQcFv/vzFTR43uITv7qW//5XOgZQ80gvxtU1nDp1Sh7wJ+SNoljk3t5ehoeH+eFoA7eDOjUVU47hl1ELHB/FpWtaxNpqDiusxyxwtK94ecV6bgU+wrEzv8Q3YiKOtoMd/cVRMZsKy1JYscCWlRjgcvQjO6cbgSmi1jdR7Cq2/FNfGYfJdbjCzXzmf0/T0mDw8IO21a1f0c/alRpV5YobWi/++itMTU1x8eLFYhx+4S6gKBbZ5/PZ1vg126warml0UwNlh7iI3G6osNCxrZnSIvMRNEd+GlBfvoHPn9zERCgqVtv9Vc4BHw6LbDkts0qaLGLz8XZ43OoGJqYpLzOYDpokWmt73gAmJ01+7dOjgOI3fmYJP7F5gglzEoBJ8zYf/ZiXQGiM2+EQb7pe52n3Wnp7e6X9KuSFggt5amqKoaEhrpoNhKyIM6xFLbJ9c6Kmog8HcDgIUZc6hgbKHv1V5apNFHHUEkeF6rhBAkvZgyHSidhSif3JUXFa0QrEP5obKrlybTyWxnDW0+FnP7yunMe3/ZiQFbbbAGmwNJOppWOEB8MEAgG53VGYNwV3ra9evQrAty9HTn0FIWvK0e0Uca1j7nX8u4HTpdZiAa7RqUeYCJFBxJZDxJYt4uThmKYF4ci46yQ3mnA8EOZcXldjYA/RVBgJga/Erqjkeyoy0au/BSBBLyEvFFzIAwMD6LpBz6At5A1N8WdpRW+MSBBz7JbFeMQ63mbWqXE9yBd6GhMsboI77RCzlWydTXuK3rKY2BZWqRFrRyT71sg0RkbxxqPZN4ZTu53ScYFzuMpcXLt2La/HW7g7KahrbZomfr+fMb3OdquVoroi8rQPDXQFlqajY2FF3OZ4uzguFlvqFi4e5o++50m0xMkCjraHk9zraBeUcrrVMVebjINDVESgQ4Hp+I4l9SMnfM/SIluaiVpqMjQ0FHsflSDMlYJa5MHBQUzT5I2b5bETfHyKWJ9x9LNMr+BLF7fTP7GFClcDaBupLlsei1br6NwY7+TT329OsIAq+tAApRLc6dinwzrHrbBjin23IkM3I1M4Po+pWFJWxnTISuxHTrLE0Qj2Lz5dnfXxuVLWG7vYCcJ8KKhFHhiwn3/17UsQVfKFa5Y9IDNmkUHTW7gSqOALt92gNkesbBO71kzw8PLXqHQt5Utv1sQtqdOKOi2r5bDGUZGbye3nxPSxC0LCXVEkWNnlNW4G1VR8fYxkS6x4aH3qQ+4z0W1+nzXG/Vy7dm1B7ooSSoeCWuTh4WGMqqUMjiX6m26jKiJm22n+wY0mou5svAmqOHqpgkrXWkaDy1IEqJIFq1Q8sOUQrIpaZzO1Ha2suNVNuXkids+yorGqMq31TRztZX93Vw1lfXzGGcNVY+R9AL1w91FQIU9OTjKWMlZfoVEZc6sx1vHNyxVx45Y02sp3exlKVcfXxdI427/OfuK4a60cYkyIaFv2HVDJj/9JmHcEvEYC4VjdEwScdCdU54OVWGmemT0TE+4xpqamcjuwgpBEQYU8Pj7OeDiN9266Y1Hr0ekKogJRCcEme77cpXj7RlVqV5MisV84aQRXSn+yilvexACZI11K9FqxpLyM8z8eI0XAydYYeGh97gGrMQKYpil3JwnzomBCjlqZm9POImwBBCYrY33Ik1ZZzNA500SF8tLlKr51wZ0aZHKI2HIKOhoISydWFek3dvYnp1jtuIW3LIt1TXX2iK5kAcddiFiZK+sTRrBkxTA3E46XIMyFggl5ctIenjg4Hl2iYuf+0R9UxMZZj4fidwclBprs6UdDWlzETmucIFwS+5VjYk9sMytnkMvpijsEbUX7nyPLhkZMZhKwruyDqKP4YW92fchOblsjgAhZmB8Ft8jXxlLXHT0dwq01oKHRXjdKTZli83KLT2wd4UOr7AuAHU0mUdxpprg1Jq0FjlnidBbaYYVjAnYI/5G1K7gwMD6DgBMvJt3nJ3I/TmX2lW5sLM2BEoQsKVj3U9Qi+25bRMdJ29gz53z1bLhnGFQfB7fdBmUSssa4HHgoSbzExBI31EnWOLrCOVQz2c12Wugkq5zomsfLvTVqQYKAo1c+lbI/KPAPhSjTqjHVaNbHaVq3L3hikYX5UDAhj4/blmZoMn278eCLFod/o5Wa6hGC5ggKhaF5OH/LBQkvPnUIjESBWlHRZRqlZSWvd3xPtuhJ22+9t5nv9QaYUcCKxHoCZrgc9OyFbGp2lNs0c4t2Z8uZM2c4d+5cQfIW5kZjYyNPPPFEXu9FL5hrHX1CYG1ZOK31Gp1U/PKfGfzPb67E0F1oaNwO1sTElHhHEkkWk0TBRgSuIIM1dqRNCmglLrO3b29p4NTlcRJEnCaiHt8nFaujq8wxlDMLDGX/mIV6wEBvb29B8hXmztDQUN5H8xVMyJWVlQDUuVXKOpfDlL12PsTt4RY0TaO27BJ/+r5hasociZVDpE4hJVnn1O4oEtcnWWUrXbeVUiypLOPmhM50MJzYDiZaNvF5h4BRCs+yMoLWOLlQbtkXvHw+GtWJjBhbfFRXV+f94YsFc62jJ+bqpTpvDIHTGseICOR3/1rjL36zlYpqP+VaH3/8vhD7jjekTRv9tBIsc8SCJw3QSIhwR7eNueTx79E8yg2dezyNvHEpELfC0QzTeBUJFVQK/1CQMq0KU2UfuKoI2YNdampqst4mF7Zt28b9998vbfBFRCGeoFowIccscnniGw5cCeq0GZ1U/NJnNQ784irWr7qM4iqoBlLEn9wGjq50zDq7rlIDZqRpDxOzxM0roiJOEm4a0aadBy5frqN5dWYhVww+Tpk+TdmozoTnb6nTl9rLC2SRAWpra+XhBSVOwVzr6mrb0rTVRZ+cB2k0jHPFp78ZwtDs9nK5oSda07SbJVrauItNGkvs+IQEl9pTX019fT1vvusUsbMtnFRO8rzj+3/63HX+/h+W4dJSR3nVW/fz5S+X89W/ruWtbvv41GO/X6qQQhZKn4IO0ayoqKDBYZETzH+CCOyP0QmFwRI0IPTOGPcvrYqnTQg2xbdJtMbxGeUUXCwP4m3jCA+tWc64Wc6lgfEkESdVLpMVTvYOUPyfEyOc+WFjwrGoNVbyF5+rRUdFpshylmIYhtyPLMyLggq5srKS6mjgKtk9jZGoyHPv1qNpGhuWK068fJV1YRcrq91p0kYFpFKzSxa3U+SReU99NQ+saeb05Qlu3J6Or0vnVqezwmkEHJ9VfOEbw5SzjHK9iqFL9/FfP7GMiYm453DlssKtu6kIVos1FuZNQYXc2NgI07epc1uzWuPo56e/EcSwGvn9j14HpTh95iZXTt/iQ21uDu18l0Mf8eEyLB5pMfjNxzVHfmkEnWK2oW35Eh5rb8Y/ovPGpRHs7qUZRJxskWcRcNTaToyb/MbvT/Of/1sNf/E344lpI6xWWwiPhe3jJAjzoKBCbmlpAeDpdY52cgKp/vHohOLZT7n4k6+vjKWanrZ47yofU+EfM2X+mD/deYtfem8P65pe5/DHrvOT97ppqDb47J4Q72tPfdPhspoKtq5v4p6GZVzoD3Pi7DDTITODiBUziji57kkCTgy4wfiElZDOOZWfew+madLU1JTN4RSEjBT0CSErVqzAMAw6m8N881ykqBmssZPXzk1FHjmr+NQvT+Oq6o0lm7QuxNKNh/v50NZ+fu69DUyEb/HzO5ayfvlD9PTC+HiY831j9N8O03/1VmJhyiG8BEucXMdkETsE7Gjrpm06zBSoA+5tqAKCeX+hl3D3UVCLbBgGHo+HGitAmZ58UqeLVjk/4yytncKKDOLINI2FbkY+h7m/3UttZYAzF28zHXKMLFPJIlZJRarEtNmIOMkCJ1jeZBzW2KUrqo0xVq5cKYEuYd4U/HG4LS0tWJbJT7RlKCqNtwrErDEKKiuGUZEBHtlMYSvEzqd+xMa1rnjGDrHqzsJS+qMzWVXnRcB5IUgSsHP7JFfayQOt5VhmWNxqIS8U/E0Tzc3NADyxWvHqlTRudcKX1LboY+0642buL+ueNif5rY9d5sb1Vm7ccvEvp+DslVCa9vAM5acVMamCT7a+GV3q+AXlAx1LgAlxq4W8UHAhV1RU0NjYiD5ymzJ9SeS1MWnc6DTn/pomjY/vPMeUOXNbMxPj4RGqlo2wahn8ygao0j18/qsrOHcpyKwBrTSWOkXEswk6wzKXAfcsDVPurpYRV0JeKMrbGNva2rDCQT76YNKKtIFsFXOr/93PBBgPDWNaVl6m0fAAP/tUKLXsmUQc+UwVcRo3Omk/MlnmX33/CsKhoLzATcgbRRFye3s79fX1vM8zZge9ZnKrnehhwsrK67R0xUBimWkCYQn1SedOZxzZleZ7LK94kOvBphAVFRWsX78+q+MnCLNRFCEDbNy4ETM0zb7Hog8aSO9WO4NcR44uJWxZeZ0CwRtsvr+MGS8gjnrNKmJn4nQCjo3ztpf82vsbCYeCbN68WV5yLuSNorwfGaC1tZX6+nru04epK6/jdrq76pKE8O41qFCrGLOu5LUuH/zwKX5+VzMTo/VcuFjJ998wefdqOKVdrM8QhJvpDqjEKHmc2kqd9uVBli6tl/uEhbxSNCEDdHR08Oqrr/J721384cvOV6ukbSwD8NaFJlrXXMp7XW4F+6G8n3sehHsehJqyRnSrkts365maMrh4xeD8RZO+/mibOksRp20X28s+/mQDSk2xcePG/O6McNdTVCF7PB5aW1vR/X6al9RxdTSDW+swhF9+ycWn9nm4HSrse4RvTUde21L7LkYttK+A9m1w9nubeeV7jovOjK51cq7x6PaGlmpW14dYudIjXU5C3imqkMFuK/v9fj7xeJDffslFyIw/nC/WPk7iG99ZzxNPXiVs5f7c6PmwtMzDK6+FmdW1ThGxSvhwGfA7H6rFDE7S0dFRuAqn4fLly5w9ezb2MERhYXG73axZs4bNmzfnNd+iBbui1NfXs2nTJtT0GH/0pGNFJpdUwQ8vagSubSVomkWdur/XlkXfcBoRJ/RMKf5w90qCk2Ns2rSJ+vrUmzoKyRtvvCEiXkQEg0F6e3vvnIfvzcSGDRtob2+nxhrht7YlVSF5kEVk/otHK1niamPaNIsyuUYf4OUTjvcxzXChSf/dVvPuzjpqXBO0t7ezYcOG+R24OSADThYfhmHk/YJedNc6yubNmxkZGQGu88F7l/Gd3qT3CqfRzT9+u52nng4wPJ37kM1cWKk9xOe/WJWmbzl53rlVsohhx0NLeM9axcqVK/PuSmXLE088wc2bNxekbCE9tbW1eX+YxIIJGWD79u289NJL7Fo9gu/WEs7fsDKktIXxzo/hx195lF/ceQuz5jwjwcKcoN/+ViOQ7vnUqZ5CbD5JxJvXL+Ejm1xUVlawffv2gtQzGwzDKMhTG4XFxYK41lHcbjc7duzA5TL4D1unuG+5860U6ftiJ6fgS19v4Mt/9V4atU1MW2Zep0pXHRyXzVIAAAy1SURBVO/2T2ewxunqliruzeuX8Ks7qnC5DHbs2CG3KQoFZ0GFDLab0dnZiaFZ/M7mMZ5uT+MkZOjW+c5LzZjoTFlm3qay8bUZaprJpU78vuOhJezpdKEsk87OTmmjCkVhQV3rKB6Ph6eeeooTJ07w4VW3aF/ewJ+diNyh5ERFu6hsrl6HR/QljIaG8lKPNRUP8g9fXZIhUp0yQ7Jl/rfb69i6WlFTU83jjz8uIhaKxqIQMtiW+amnnsLr9YLfz4GfXson/zlI2EozNtuBmzqmrLkFv9qqVqMrF4aqwP9mK13eaDlp3OoZcBmKT3y0mWrdfuLH9u3bxZ0WisqiETLE28w9PT309vbyuQ/X8D9eBf/tzIJSuJlWub/JcN3kk/zTV6qI3tiQ8NSQNKWkm42O2Prtp2sJTY+xYcMGHn300ZzrIgjzZVEJOcrmzZtZtmwZJ0+e5A8fh2vBpfzJK+NMhnAM37RnzFAlU1lazijNlR6836oms3CTSONWV5QpfvuZJlpqp7DCkzz66KML0k8sCLBIhQz2WwRra2s5c+YMlt/PZz9Yxo9GavhfJyYJO3qpJkcrmS7L1G2VysaKTZz+xmpGRnITfxSXAXt2LOPhFhPLHKexceWCjNgSBCeLVshgD+fcsWMHg4OD9PT0sCE8zGd/xs3JqxV89XX7Psi3Tq7A2j67KO+vepDgO+t5+YQzXJbGZZ4hq4+/v4mO5iBmeJq62no6OjrweDy575gg5JlFLeQoK1as4Omnn6avr48zZ86wdUWA9z5bwdWJSo6fD1FeuZkfTnSn3fbhqofxv7aB1y7oZHojRdo+uIi7vr7Jxa5ty1hVHyY4PUZFeTUbt2xi7dpM3VSCUHzuCCFHWbVqFa2trVy8eJGLFy+yIjjMxzaCMXE/O8u2cFm7wSnjHG9NnOeB6nbGT3Xw/bczveUiPS5D8YGOpWzbUE6taxLLDAGjlLmq2fjgZtavXy9P9hAWHXeUkMEectje3k57ezuBQAC/38/AwADXr1/nPtzcxyNo5T/JxBj4Vpi8tzbMD/smmQxBKKzouwmrGmBFXQWrV1ZSV26ytLqMhmqoKgMVDGAPz5ymob6RtrY2PB6P9AkLi5o7TshOoi/wbm9vJxgMxkQ9PDyMmg4QfQ3UZk+0L9ppSU0g+kLySVCwpKKWes8qmpqaaG1tlb5g4Y7hjhayE7fbzapVq1KehTU0NIRlWUxOThIIBGLLa2trqaysRNd1eRuicMdTMkLOhIhUuBtY8JsmBEGYPyJkQSgBRMiCUAKIkAWhBBAhC0IJIEIWhBJAhCwIJYAIWRBKABGyIJQAImRBKAFEyIJQAoiQBaEEECELQgkgQhaEEkCELAglgAhZEEoAEbIglAAiZEEoAUTIglACiJAFoQQQIQtCCSBCFoQSIO3jcL/2ta8Vux6CIMwDsciCUALogLzbVxDuUCorK4GIkDdv3kx1dfWCVkgQhNxwu91s3LgRAE0plf07RwVBWJRIG1kQSgARsiCUACJkQSgBRMiCUAKIkAWhBBAhC0IJIEIWhBJAhCwIJYAIWRBKABGyIJQAImRBKAFEyIJQAoiQBaEEECELQgkgQhaEEkCELAglgAhZEEoAEbIglAAiZEEoAUTIglACiJAFoQQQIQtCCSBCFoQSQIQsCCWACFkQSgARsiCUACJkQSgBRMiCUAKIkAWhBBAhC0IJIEIWhBJAhCwIJYAIWRBKABHyvPBz7Pk97NmzhyPdC10X4c6gMOeMK39Z2fiPPc9zXb70K9vaaGvdxrO7drLFM1MeRzg60MJjs6QrFoutPtlwp9R5pvOlra2Tbc/uYudi3oFFQt6FfHUgg4gBfD58Ph+HvF20de5m396dpPxE/mMc7vLiA7y08MLeLfmuYm4stvpkwx1U55nOF5/Pi++Ql6623Rw8kOZcEWLkXcgxOvcnnUB+/P6rHD38Il6fD5+3i+f6Sf2BPC20Aj6g87HmuZfffYQ9h7ww35MgX/XJJ7Pt22Ks82wkny9+P8eOHqbL6wNfF4ePbeXAziJKOV/nT5EonJBT8ODxeNh7YAu7uo/w3CEv+Lp47kiyxdjC3hdeYG/xKjYLi60+2XAn1jkJj4edew/Qwh7sU+Uo3Tv3snh9i4VlQYJdni172d8Z+eJ9kWP+haiFcCew5bHoidLPgJwnGSmiRU5ky979dHoP4cXHyVN+dsbcJj/Hnn+OLh907n+BxOadn+4jh3nR6yPasmpr6+TZfXtjAZ2U4Imvi+f2dMW+tu0+6HDRomW1sfvgAXZyjCOHu/D6ACLLPDPVJ5nk+rXR1vks+/ZuSXLNujmy5xBeMufZfcS2RE6XM/t9m73O/u5jHH3xJF5fPL+2tjZan93H3rTBpeRj1c2xoy/arm9kXzt3P8uuncn7Wljmvx+Jv3lnJ3i92Z4/dn7dx47y4sl+fFnXIf8smJChmZY2wAe+k6fw75ytHRI/OcE+UHbwzMuh5/ojogNaWmlrw16HI22E1pYMpZw6wp4ur2OBj4GrkPVZOXCM5w91kRi68eHzHuK5/k72H8iDWzjXfUsg8Tgm1Nbnw3foObyztQtPHeH5SDDNsTXerkN4B5JjI4UiP/uR/Jv305nDMY5fkCMJaYuWH6lDf4rwC8MCCtlDSzQikwX+Y4ftHy35x/F3c+Twi/Fct+zlwBYSghX7Zg1W+Ojq8gGd7D8Yse5+P/4cjr+3qwtoo3N//Crsj8UCvBw68ti8T/C57Vsi3UeiJ79d111bPJHt/XQfO8yhLl+G2EWU6LFy7qvtiRzy+sB7iCOPzea5ZIufYy9GZNK2ja2OHc3ffiT/5pF8sjnG/gH6M3giUe/J13WYY1sjRqaALOiAkOaWyJXON8DVWdJGuynatm1NinJvYe+BfByoNnYfjLvoRH/QrOlk/8EDCa6UZ8teDu6O7KP3dRZ8zIj/GFFddO636+qoLVt2HnDUd6bYRfK+etiydx/RTfvz0Zj1d3PEYXE7n3VevPO1H/P8zT07OfDCAfamaU54dj6L3bqPeHYFZgEtcm40R/xwX9dRurfuzfsgh87987sYdO5PXyfP1m20dfnw4eX17r1sWcCwq//USdsBatvNrgz1iNc3c9Mi/b7GPSxfTm2SCN5D7PGmX9W2+2CChc/ffhTSUsabjsVgQYUcGwzQ1sJsvZ2enc/SefIQXp+XQ895I0GuXWzxLPIePkef7kITO96tLZll5tnKtrYufL6IZc3hitmczzN3hlGAhd6P3PHTfewUrw+cpL8/vtRXxB99AYXsZyC60zP9IDG2sPfAQR6LtMV8EUHT1sbuZ/fJML5ZcRzvxUjKAKJMLK79mHFIchFZQCFfJW6Qsx195GHL3gO8sNePv/soh1/04vP56Dr0HAOzdg3d7eQWXFy8LKL96D4SE3Fb53727dpC3EHMHFUvBAsW7PIfezEStm9j29ZcranHjuAeOBgbWOJ9fcFDSenxD2AbkDayvl4Vmv4BMsZ//Kc4GfNcF7mXs8D70f16LOLGgb1OERefBRGy33Elo/PZeQQcPPGRP5l+1Cwi4vnA++KRtFHp7qPRvuVW4udTJBBChguQIyo7IznuW+xY+bo4muG6Fwsk0clji9TDKep+ZHGM03uUVxmYR7G5UlQh+/3dHDvyvN23CnafcJbtomPPP8+RY91JYnX0Mya3s5tbsLXi5fVuf7QC+As1zM/n5dCe5zkWLQs/3ceeJ76ruxwDQjxs3RZV8iGOJGxzhOefSx5YksRc923LrlgXkffQ845yI2Ufibf3Euu7yCjGfmRxjKPdp76uoyRWoZsjzx/CWxLBrhm6EyDSpkgZujgTkZFDXURG0PgcUcFO9idfEBxRS++h52Kjb1KH2OWDNjp3t9Lf5aXr0HN0pazezb6kMj07n6Wzyx4V5Kyfnb6T3a39juGPScx53zzs3Lebk8914cOXWm6s+P3FvdMoZ4qwH1kc4/hvGA+8tvkcw3PbSBi2WUjybpFjgzzS0NbWRufu/Rw8+ILdpsg6Vw87Dxxk/27H8LnIqJ62zv0cfCHd8EcPO/ftZ7djeB1tnXNoj2dHy9a9HDi4n86E8iL7m3Zk0Bb2HtzP7k7n8Yqm38vWlplKm8e+eXZy4AXHsXSU3dbWyf6DBzlwJ0QNC74f2RzjpN8wIuK2zt3sP3iAfdvmUXyOaEopVbziBEEoBPLMLkEoAUTIglACiJAFoQQQIQtCCSBCFoQSQIQsCCWACFkQSgARsiCUACJkQSgBRMiCUAKIkAWhBBAhC0IJIEIWhBJAhCwIJYAIWRBKABGyIJQAImRBKAFEyIJQAoiQBaEEECELQgkgQhaEEuD/A5wRC2VETW+QAAAAAElFTkSuQmCC;" vertex="1" parent="1">
          <mxGeometry x="321" width="190.78" height="190" as="geometry" />
        </mxCell>
        <mxCell id="cwQcEkth57no9mUlX8GR-13" value=":Object" style="shape=umlLifeline;perimeter=lifelinePerimeter;whiteSpace=wrap;html=1;container=1;dropTarget=0;collapsible=0;recursiveResize=0;outlineConnect=0;portConstraint=eastwest;newEdgeStyle={&quot;curved&quot;:0,&quot;rounded&quot;:0};" vertex="1" parent="1">
          <mxGeometry x="679.29" y="10" width="100" height="480" as="geometry" />
        </mxCell>
        <mxCell id="cwQcEkth57no9mUlX8GR-25" value="" style="html=1;points=[[0,0,0,0,5],[0,1,0,0,-5],[1,0,0,0,5],[1,1,0,0,-5]];perimeter=orthogonalPerimeter;outlineConnect=0;targetShapes=umlLifeline;portConstraint=eastwest;newEdgeStyle={&quot;curved&quot;:0,&quot;rounded&quot;:0};fontSize=14;" vertex="1" parent="cwQcEkth57no9mUlX8GR-13">
          <mxGeometry x="45" y="329" width="10" height="33" as="geometry" />
        </mxCell>
        <mxCell id="cwQcEkth57no9mUlX8GR-30" value="" style="html=1;points=[[0,0,0,0,5],[0,1,0,0,-5],[1,0,0,0,5],[1,1,0,0,-5]];perimeter=orthogonalPerimeter;outlineConnect=0;targetShapes=umlLifeline;portConstraint=eastwest;newEdgeStyle={&quot;curved&quot;:0,&quot;rounded&quot;:0};fontSize=14;" vertex="1" parent="cwQcEkth57no9mUlX8GR-13">
          <mxGeometry x="45" y="405" width="10" height="32" as="geometry" />
        </mxCell>
        <mxCell id="cwQcEkth57no9mUlX8GR-5" value="" style="shape=image;verticalLabelPosition=bottom;labelBackgroundColor=default;verticalAlign=top;aspect=fixed;imageAspect=0;image=data:image/png,iVBORw0KGgoAAAANSUhEUgAAAXAAAAA4CAYAAADkZaOKAAAgAElEQVR4nO2de1hU1frHvzPMDAwMdwYEREBREy9JkYkdshKVFDEsu5xTeCGPT1oqqelPSTxlp/RkRicVSzHzHBPQPKAoKSclQzMviJcjCKIgooCADMPcZ+/fH8Q8DHttmIEZQdif5+F5mLX3Xmvt27vf9a73fRePpmkaHBwcHByPHPzu7oAlyT73P1TUPOjubnBwcHA8FHqVAM+91Yg5mSWofiDv7q5wcHBwWJ1eJcAldgIUiQZg7n+KUFUv6+7ucHBwcFiVXiXAeQAoZQMK9B6Ym1GMe7UN3d0lDg4ODqvRqwQ4AICmQSlluKRzw9zMYlRyQpyDg6OX0vsEOPCHEG/EZb075mZeR8V9bmKTg4Oj9yHo7g5YDZoGpWjEVXsPzMkoxs7pQ9Dfw7m7e8XBwWEFSkpKsGXLFohEIjg6OsLPzw8eHh6YMmUK7t27h/379+PNN9+Es3PvkgG9UwM30KyJF9IemP2f67h937rmFIqioNfrjf66Stv6KIqyQE+7Dk3TjL6R+kfaR6/Xo6eGH9y5cwcXLlzA6dOncenSJVRUVJh8zUn33xLPwKPIw74WAoEA1dXV2LBhA2xtbZGTk4NFixYBALKysrB06VI0NTVZrf3uoldp4AI+j1n4hzml0F6KOZkl2DV9MHzdnazS/l//+lccP37cqCwkJARpaWng8837ViqVSkRFReHWrVtG5dHR0di0aVOX+9pVCgsLMXPmTCiVSqPy999/HwsXLgQAqNVqxMTEoKioiHF8UlISoqKiHkpfO0ImkyElJQVpaWm4ceMGmpqaoNPpIBKJIBaL4e3tjUmTJuHtt9/GkCFDWOtJTEzEnj17jMokEgmOHz8ONzc3a59Gj2LevHk4ceKEUdmgQYOQmZkJOzs7i7cXEBCA1atX49q1a1i2bBk2bNiA3bt3Iz8/HwcOHICDgwMEgl4l7gB0swCXKxSorW8wW7iR4INGvUJD3kjToJtkKLJ3w+yMEqREBcDP0/IvVFlZGUpLS43KSktLkZ+fjyeffNKsunJzc/Hzzz8zyisqKrrUR0uhUqlw9epVRnl1dbXhf5qmUVJSwrgmANDQ0DMml48dO4aVK1fiwoULjG1qtRqNjY2orq5GQUEBdu7cidWrV2Px4sXg8ZjKQmVlJeNchUIhdDqd1frfUyG9CxRFWXXkJZPJoNPpoNVqodPp4OTkhDVr1uDGjRvw9/fvlfehWwX4oQs38NlFBXi0HujijeWDRiMtAs1Xs9T1hyYudsWcQ7ewfSoQ4GVZIW5ra0ssT09PN1uA79u3j1guEonM7pc14PP5sLe3h0KhMCoXCoVGv9m0LRsbG6v1zVT27NmDOXPmQKNh+fC34f79+4iPj0dFRQU+//xzxnbSvRGLxURh353U1NQQP6rDhg2DkxN5dFpVVcUYDQJAcHAwHB0dGeWkd8EamjcbSqUSzz//PC5fvowRI0ZArVZzAtzSyLQ0au29Qes0XRbgAAC9FtBp0OwRTuAPF8MisRvmHLyJHVHAwH7WH9pmZGTgww8/hIODg0n719TU4ODBg1buVd/m999/x/z5800W3q3ZuHEjxowZg1dffdUKPbM+Bw4cwPz58xnlR48excSJE4nH7N27F0uWLGGU5+bm4tlnn7V4HzsDTdPQarUAAI1GAzc3NyQkJEAgECA5ObnHzrt0hW6dxBTweaDVCsv96bRgFd4t0ACllKEEbphzsBSl9+qsfp6FhYXIzc01ef9Dhw4ZmSIeZdgmALvzZdJqtVi6dCnkcvaUC/b29u3WsXbt2h5jBjIXNpNle6bMzhzzsBEIBHBxcTH8pmkac+bMwVNPPQWRSNQjRn2Wpudc/YcJTYNSyFDKc8esgzdRWmV9P/G0tDST9qNpGvv377dybx4ePVGAZ2Vl4ddffyVumzx5Mvbv349Tp04hPT0dYWFhxP2uXbuG3377zZrdtBqdMen0NDMQieHDh+Pf//43hEIh4uLisHTpUgDAwIEDsXPnTvTr16+be2h5et+0rBlQChlu2rtjzqGbSIkKwCAvV6u1deTIEVRWVsLHx6fd/YqLi4mTl48iQqEQmzZtQm1trZH2Q1EUnnnmmW7rV3Z2NrF8xowZSE9PN2iVjz/+OCIiIjB16lScOnWKsf+pU6cwefJkq/aVw3TEYjECAwMBwMhbSCQSISAgoLu6ZVX6tAAHAFrRgFJ7V8w+eBM7XtRhiK/UKu1UV1cjOzsbc+fObXe/H3/8keGa96hiY2PT4wScSqXCuXPnGOVCoRDx8fEMk4CLiwsWLVpEFOCXL1+2Wj85OEyhb5pQ2kApGnALrphzuAIF5TVWayc1NbVd04FGo8GBAwes1j4HIJfLUVlZySj38vJCcHAw8ZgnnniCaD+9c+eOSW32xskzjp5Bt2rgPcmuRikbcdu1P745VYqv/Tys0re8vDxcvXoVI0aMIG4/f/48zp8/3+V27ty5g9LSUty6dQv379+Hra0t/Pz84O/vjxEjRpg88aRWq3H27FkUFhZCJpPB09MTTz31FIYOHWp1d8aqqipcvnwZN2/eRGNjI5ydnTFw4EA89thj8Pb27nS9KpWKOPkoFotZw6zt7OyIUYSVlZWgabrdZ4WmacOEaEFBAfLz81FXVwdXV1cMGTIEoaGhrO6nSqUSd+/eNWpDr9fD09OT0Ve9Xo/y8nJQFGW0r5ubG9zd3RnnSqI9Lyk2F0BTPavM5fr16ygrK0N5eTlkMhkkEgkCAgIwYMAADB061CptPop0qwDvMZoJjwe+gzMeV5fg/14MttqHpampCRkZGawCPDU1tUvhxnV1dVi/fj1++OEH3L59m7Gdz+cjPDwc8fHxmD59ert1HT16FGvXrsXp06eNyl1cXLB06VJMmzYNtra2DD/wtpw5cwYFBQWGKDiKomBra4uXXnqJ6D8sl8vx9ddf49tvvyX6KgcEBGDChAlYtGgRRo0a1W7bJPR6PdEfmMfjsd53Dw8PpKWlQaVSGZWbklfDzs4O9+/fR0JCAr755huGeSwsLAxr1qxBZGQk49hz585hxowZ0Ov1hr7pdDp8+umnWLBggdG+NTU1GD9+PORyudG+CxYswKeffoqKigocPXoUfD6f1SNq//79KCoqglarhUQiwZAhQwxmorYRxi2kpaXh0qVL0Gq1sLOzQ3R0NKsvuSlcvnwZf//735GVlYXGxkbGdolEgsjISKxZswYjR47sdDu9hYciwFUqFR403EU/r8CH0Zx58PjgOzhhrE0VtkQPg9TVuslu9u3bh2XLljG0LplMhqysrE7XW1xcjNdeew35+fms+1AUhdzcXJw8eRJ/+9vfkJCQwNrHWbNmEYXzgwcP8OGHH+LIkSMm5QjZvXs3Nm/ebFQmFAoRFhbGEOA///wzli1b1u453Lp1Czt27EBmZia+/fbbDj9EbREKhRAIBAz/b5VKZdD02yIWizFz5kyz2mlBo9HgjTfeYPVYOX36NGJiYrBt2zbExsYabVOr1bh//z7jGFJOD71ej3v37hn8oFuQyZoXNikoKEBcXFy7fW0dnOTu7o558+bhs88+a/eY1tvt7Ozw1FNPdVqA//TTT5g9ezbu3bvHuo9cLse+fftw8uRJJCcn46WXXupUW72Fh2IDz7++BtWNhx5GU+bB44Nv74Rxwmpsmz4EUleXjo/pIleuXEFeXh6j/Pjx4ygpKelUnUqlEnFxce0KvtZQFIUPP/wQO3fuZGy7desW3nnnnQ4161OnTpnkB03KPyESiRja7vnz5/HKK6+YfA41NTWIjY0lhsC3h0gkMvIVbl3fjRs3zKrLFBoaGjp0N1SpVHj33XcZk6J8Pp9o7iLZ43k8HtGs1XL9zR1VCoVC2NjYMCJr24N0X02luLgYb775ZrvCuzVVVVV46623zL7/vQ2rCnCapnHmyjpIBx2HyLZnhIAb4PHBt3fGs+L72DZtMNwIL7U10Ol0xDD5vXv3drrO7du34+TJk2Yft27dOoYQ3r59O1Hr6yykF7qtUNJoNHjvvfdQX19vVt0ymQwJCQlmmZ1aUo22RalUYv369d2W7bGxsRFff/211eo397xaQs/bavQdHdOZ60fTNNauXWv2cyeXy/Hpp5/2HFNsN2A1EwpFUfj9yicQuR+AWsWHDd2DoqBaCe8tUYPh3AWbnVG1LMKq7ZA9MzMTn3zyCVxdm/3OKyoqkJOTY3Sci4sLVCoVw+7aFoVCgZSUFOK2cePGITIyErW1tdi9ezfq6oyjTktLS5GTk4OXX34ZQLMgPXz4MLEuqVSK2NhYeHp6IisrC7/88ku7/TKHzMxMhq0daNYe4+LiMGrUKFy8eBHff/891Gq10T7Z2dk4e/Ysxo4da1Jbtra2GDFiBM6cOcPY1hJstWDBAowbN84s7bMjwsLCMHbsWDQ1NSE9PZ34scrLy4NOp7NK1jxHR0cEBQWBx+OhoaGBGOnr4+MDiUQCvV4PLy8v9OvXD8HBwdDpdKirqyMKWF9fXzg4OECv18PJyalT+U5KSkpYg9defvllPPnkk7h27Rr27NnD+FgfPnwY5eXl8Pf3N7vd3oBVBDhFUThz5WOI3DOgUlKwEfBAEt9aPQWenQTQsSWgMhO9DrRW3f4+PD74Ds541rYaydHD4Cixzix6C05OThgzZgyOHj1qKLtz5w6ys7PxxhtvAGgO8mn9ctjZ2SEyMhJZWVkdCvCioiJcunSJUR4ZGYmMjAzDsDoqKgrTp09nmEZOnjxpEOA3b97EzZs3ieeQnp6O8ePHAwAWLlyIqVOnmpUeoD3YbP+JiYlGdvoRI0ZgyZIlRhoXTdP46aefTBbgQPO12bFjB3FbWloa0tLSEBoairfeegszZsxA//79Ta6bxPTp05GammqY93j11VcRExPDmKSrra1FZWUlBgwY0KX2SISFhSEvLw98Ph//+te/EB8fz9jnq6++wvjx46HX62FjYwOxWIy//OUv4PF4+Pbbb7Fq1SrGMVu3bkVYWBj0ej34fH6n0ubm5OQwPswAsHz5cmzYsMHwe+TIkVi5cqWRlq9QKHDixAnMmjXL7HZ7AxY3oVAUhd8ur4XILQNqFQWdll0wD3J3wLOie3jBoQ4TJPVd+ouQ1MGf1wCeTTvfpD8mLMeLqpA83frCG2jOuxEZGQmp1DhAqHVo/Q8//GC0LSAgABERER3aoYHmWfu2w1Y+n481a9YY2UQjIiIwbdo0xvEXL140aDWVlZV48ICZVmDmzJkG4Q00u4699957FvHW0el0uHLlCqPc3d0d77zzjlHZW2+9RRSm165dM6vNadOmsYbIt3Du3DksXrwY48aNw+LFizvt3ikUCpGQkGA0aT1hwgTivVAoFGabkUxFJBLB09MTHh4erEK2ZbuXlxc8PDzg4OAAqVQKDw8Pw2ixLS37enl5QSqVdirfSEFBAaPMx8cHH3zwgVHZkiVLEBQUxNj34sWLZrfZW7CoBq7X6/H71UTYeRyGSvmH8G7nHY94PAgRj1uu/fVZ5/HPCiFAEdLT/mE2eUFcg6+jrCO8SbY4pVKJ0aNHIzQ0FEeOHDGU5+TkoKamBvX19YxJrkmTJmHAgAEm2XYLCwsZZb6+vhg0aBCjfMyYMUhNTTUqKy4uhkKhgKOjI2pqyEFMY8aMYZQFBgbC1ta2wxFCR1AUhdDQUIhEIoPJQqvVYtSoUQz/ZVdXV3h5eTFcJOvr6zv0x26Nra0tUlJSEBMTQ7x+rbl9+za++uorbN26FS+++CLef/99o49ZR7QO724NyZdZo9F0+XqaAptdu73MjGypWDuTzbEtpFHfkCFD4OHhYVQmFAoRHByM69evG5WT3E37ChYT4BqNBmevfQixxzEolRT0uvaFtzWg2JT9P8wmEfb38c+ooZBIJA+vTxQFR0dHREdHGwlwuVyOzMxMKJVKhm/w1KlTWYM72lJeXs4o8/LyIvpYtx0FAM1eEjU1NXB0dGTYyFsg5W8RCAQWye4mEomwdetWk/cntSmXy6HVas0KLnrsscdw+PBhvPvuu6x2/9ZotVpkZmYa/ONXrFhhclukDzvp/rYsQ9aXkMvlqKqqYpSz5Qwild+9exdKpZI1QKk3YxETikqlwu//SzAW3gysL82J8pvf7Co4SVKLf0YNeajCuwW9Xo+JEycyJni2bt2KLVu2GJX169cP4eHhJq/fR5pYsre3Jz7MpBSpWq0WtbW1AMCaXpXkdkfTdLfM/luyzcDAQGRlZSEzMxOvvvqqSc+GSqXCypUrzfrokPrclz0nWiOXy4lmO7YgKdI9evDgQa/JH2QuXRbgKpUKZ6+thr00h1V483gA6G5Iu8Ljgy92QqRjPb6e9li3CG+g2bY5aNAgPPHEE0bl58+fZ9hvIyIiIBaLTXbfIgl6Nk2UdP5ardYQ7ME2fLdWuHRnsEZO52nTpiE1NRW///47EhISTArVTkxMJI5+OMxDpVIRn2G2fOwkZUIulxMnQfsCXTKhKJVKnC1cBYlnLpQKCno9WatQNOlRJzuA6roL4PG66mdLg+bpMMT3bfTzYNpmDfwRpDPFqR5fRQ8z2SRhDVqGxdHR0cSsdq1pmdwyRUOjKIpogywsLER8fDx4PJ6hHoFAgOLiYsa+NE0bJktJdfH5/G5Zxu3ixYsoKyvDnTt3oNFoDEEtpARSlkp9MGzYMHz88ceIj4/HoUOHkJKSwuppU1NTg/T0dEPOaY7OodPpiIrDf//7XyxbtszIpGRjY0N0/1Qqlb1yuTRT6LQAV6mUOFe4Eo5eJ6FoYhfeAKBW0bBzKodAyMzPYS48HmBvbwO9nplRzgCfD76dBFMca/FV9PBuFd6tmTx5MtauXcuq6Xp7e+O5554zuT6KooiBExUVFfjyyy9NrqdFe2EThA9r1RW9Xo/t27dj9+7duHjxoslmJEvj5uaG2NhYvPnmm9i6dStWrFhB7MuRI0c4Ad5FKIoiCt+LFy+a7F2i0Wg4AW4OKpUK54pWQmKC8Aaaha5GTUOj7rrdj8cDaApwtmfpOs8GfLETpjrWIqkHCW+g2Y85JCSEGLQCAM899xw8PT3NqtMS2meLuYbNPPEw7LUqlQqzZs0yeeWihwGfz8fChQshl8uxcuVKxvaSkhI0NDSYlNSKg52uKgharbbPTf62YPaVUygUOFe0AvYepgnvh4meBvhiR0Q51+PLad1rNiEhEAgwZcoU1u3mJuaxlOmgJaCErT5rC3CKojB//vxOC29r9+/1118nzh+weVBwmE57WSBNRavVmhXy35swSwNvampEfvEqOHjmQdGkR0/76CnUGjwvvI2kaSO7xW5rClOnTsXHH3/MsDd7e3ubvbo328MfEBCAuLg4k18Mc6IYrUFqaiq+//574raYmBg8+eSTht/btm1j+IFbO6+8VCrFoEGDGAEnCoXikV3YuCdBun9jx45FVFSUyXWYO3LtLZgswJuaZDhfvAISzzM9UngDwMzHfTHE263HCm+geeHV0NBQxmRmeHi42YuutuRZacugQYNYU8V2VF9baJq2aoInvV5PDGsXCoVISkpiRGMeOXKEmOvcmohEImIkolarfSiBN70ZgUBAfIbDw8OxevXqbujRo4VJArxJUYdz1/8PTl5n0SSn0E0J2zrkicGWzyFhaUQiESIjIxkCfMaMGZ2ury0qlapTSZHYkjeRvFMsMfQFmu3IpHSrkZGRDOENsEcEmsr169eJngzBwcFGmn5rBAIB0a9ep9NZJBKxLyMUCommTtJiDhxMTHrDz137CJ4Dz6O2Rt9jhfejRHR0NNasWWP47ebmZrb5pAWSbValUkGj0ZgtwEkvEk3TVg2SuHLlCtHDg22uoKtBMdnZ2Vi8eDGjfN68efjmm29Y2yR9OGxsbKySObC76MwH2ZxjSPva2trC0dGRMZfQXR5IjxomPX2+0kkoK/8NLu56yBsp9KClLB9JgoODERsbi6KiIgDAs88+2+l1Hkm2vwcPHqCpqYkRDHHz5k2cPn2aYSoZP348vL29WQN2SHZeS9md2SaffH19ieVdbZctkVN7Hym1Wk1MMmVra9stQU6ka9BVQQqw34vOHEPaX61WMzydJBIJ0TzFlpfn3LlzKC4uNtRP0zTEYjEmTZrEGvzTmzFJgAcNmAJAjPLaVXD2UKOpsQcawB8hhEIhdu3aZZG6SHmQ7969i7q6Okbuk3379jEyvAHNKWW9vb1ZhVtFRQWjTKVSWWTmny1/BSmsX6vVEsvNEV6kfDAAiCl5W6itrWUkUAKahU/bhEuWhM1MRRoN6HQ6k81LbB+d/Px8TJ482axjCgoKiLELpPtaVVWFO3fuGCX3EovF8PLyYuxbWVkJrVbLMOutXbuWkX7Y29sbly5d6pMC3GQ3wqABzyPAdQNktfaQOPagxRn6OMOHD2eUKRQKop23dU7yFlpW+waaF+8lCYxff/2VUZafn28R+y8pNBoAcYWh8+fPdznzXFBQENFUdPXqVdb8Jps2bTKkG2iNl5dXl3OFt4etrS3RN5+UfvfKlSuscxVtYZss37Ztm2FU2Ba2EeLmzZuJ94Q0gmpqajJad7MFUubMkpISxnnW1dURg3uCgoL6rC++WX7gAweEI8DlMzRwQrzHMHz4cKK2s2bNGsOqORRFITk5mbiyeHBwsOHl9PHxIWrh+/fvx86dO6FWq6HVanH69Gnii9gZ+vfvT9Sc9u7da/TBKS0txfLly7tsj/fz80NwcDCjXK/XY8GCBViyZAl++eUXXL16FYcOHcKcOXOwceNGYl1PP/20VW3gLi4uxGtz4MABHDx40PC7rKwMiYmJJs8FDB48mCiQb926hUmTJiEhIQF79uwxyk45dOhQRnpfoDkd8cSJE5GYmIi9e/caElONHj2a2PaWLVvw0ksv4csvvzRMXpPSFSsUCixcuNCQ7repqQmrVq0iplIYOXKkRVdPepQw++kLHPAn8PgbcLN2BZw9miCXceaU7iQoKAhPP/00Tpw4YVReVlaGiIgI/OlPf4JGoyEupAw0515p0fL8/f0RGBhoyE7YglKpxNy5c/GPf/wDQqEQhYWFFvO+8PX1xahRoxieKPX19YiJicHEiRMhEonw66+/4u7du11uTyQSISYmhnXx5KSkJGzevBl2dnas2Rlb6OxK9aYSEBAAV1dXRra+xsZGvPLKK4iIiICjoyPy8vKIZi42fHx8MGXKFKL7Znl5OT755BMAwLFjxxAREWHoy6RJkxiLjwDNH9ePPvoIAPDLL78gPDwcEydOhLu7O+NZAoCMjAxkZGRg8uTJyM7OxvPPPw9XV1fGPMPp06cxduxYhIWFoaKigjjyAEBcHKOv0KkY1oD+4zDQfT3qq+0hcepYE6dpQCjiwd6BD7F91//sHfhAl5Ni9Q4EAgEWLVpE3KbVanH8+HFW4e3r64u5c+cafguFwnajQa9du4ZLly5Z1HXOzs6O9QVUKBTIyMhAenp6u8Lb3EjM+fPnG8xGJHQ6XYfC+/XXX8fEiRPNatdc7O3tWXPjtKxfmpqaapbwbuH999/v0Gbc1v9/+fLl7UY38/l8w73w9fXFu+++a1JfvL29MX/+fOK2hoYGZGdnswrviIgIw0emL9LpJAT+vuMQ5PEP1FXbw9HJhiUZdzMCAQ+KRjFq77qjrsqla3/3XFBV4QS9tu8lb2cjJiYG8+bNM/u4zz//nJEgPy4ujriCTFt4PJ7FUhXMmzcPAwcONGlf0ory5nqmeHp6YseOHZ2egAwJCcHGjRutHgEKAEuXLmWdJ2iLOR4xwcHBSElJYU2xzOfzGecXEhKC5ORk1olnGxsbo2NWrVqF2NhY1j609oZasWIFQkNDTe4/0OxRlJSU1KtcOc2lS2fu3z8MFL0RN2tWwFUqQyOLOcXB0QZi/Svw8Xqjy+lkaQAUpYerE9mboDthy0ncmUQ7bMewab9JSUng8/nYtm2bSfWvX78er7/+OqO8X79+2LVrF/785z+zanZCoRDr16/H5s2bcePGDaNtbT1TSP1VKBRGWrNUKjUscdbempDx8fFwcXFBYmKiUXlnoiFfeOEFHD16FO+99x7rCKUtAoEAM2bMQFJSEnEikHSuSqWSOEIgefBoNBqG1jt8+HDs2rULsbGx7YbtJyYm4sSJE4z0t+2Nll577TUEBgZi3bp1yM7ONuoT2+pAs2fPxuDBg7Fu3TocO3bMaJ+2SaVEIhG+++47jBs3Dl988QXDk6f1++Li4oIff/wRc+fORU5ODmufW+//3XffEecz+hJd/nQF+j0N0OvbFeI8HiCRuKNfP/IySb0Ff39/oibZmYUknJyciHWxeT2IxWIkJyfjxRdfRHJyMi5cuIDa2lqjF8rZ2RmhoaGIj4/H1KlTWdsODw/Hzz//jI8++gg//fSTwSfX0dERISEhWLVqFSZPnoysrCyGcGrrl+7t7c04D4lEwoggHT9+PHJycrB27Vrk5eUZJtBsbGzg5+eHuLg4rF69GikpKYz6Bg4c2CltOCQkBMeOHUNqair27duHq1evor6+Ho2NjaAoCkKhEM7OzvD398eECRMQFRWF8PBw1vp8fHyI50rSEKVSKWNfoVBINGtER0fj+PHjWLduHXJzcw12ZYlEglGjRuGDDz7A9OnTMXv2bEaagY7iC8aMGYPMzEzk5eXhxIkTuHz5MsrKyiCTyVif22eeeQZHjhxBbm4ucnNzceXKFZSVlUGhUDBGATweD/Pnz8fMmTNx9OhRnDlzBoWFhSgvL2eYsfz8/JCRkYHt27fj+++/x40bNxj2f6lUioiICCxfvhwhISHtnltfgEdbKJVbadlZlDV8ABdpAxobjIW4s6sAtup38NiAty3RVI+FoiiitkUajnYEWw4SHo9nUvrN27dvo7i4GA0NDYaozGHDhpmtsZSXl+N///sflEolgoKCMGLECMO5kDS0tv1juybtraxz48YNFBYWoqmpCVKpFKCIicIAAAEiSURBVKNHjzYEe3SmPlNpampCeXk5KisrIZPJ4OHhAT8/P/j7+5t0/8zpW2efldLSUhQVFUGtViMwMBAjR440XG9T7oepUBRldroEc45pebbZ+kbTNIqKilBWVmZY89TBwQGjR48mmtH6KhYT4ABQXnkBpfc/gIu0DrJWQryvCHAODg6Oh4lFl1oZ4PMEgqRfoPaeG5xcOD9xDg4ODmti8bWy+nuPwlCvTaivcueEOAcHB4cVscpih/19RiJIugn11VI4uQjadTHk4ODg4OgcVlut1s9nBILcv0DDfS84u3KaOAcHB4elsepy436+wzHI7XPcuSUBTXP5fTk4ODgsidVDmPr7BEN3+zOoNPet3RQHBwdHn8KiboQcHBwcHA+P/wfVrY+/BCX6TAAAAABJRU5ErkJggg==;" vertex="1" parent="1">
          <mxGeometry x="562" width="328.57" height="50" as="geometry" />
        </mxCell>
        <mxCell id="cwQcEkth57no9mUlX8GR-20" style="rounded=0;orthogonalLoop=1;jettySize=auto;html=1;entryX=0;entryY=0;entryDx=0;entryDy=5;entryPerimeter=0;fontSize=14;" edge="1" parent="1" source="cwQcEkth57no9mUlX8GR-15" target="cwQcEkth57no9mUlX8GR-21">
          <mxGeometry relative="1" as="geometry">
            <mxPoint x="410" y="250" as="targetPoint" />
          </mxGeometry>
        </mxCell>
        <mxCell id="cwQcEkth57no9mUlX8GR-22" value="upload new build rquest (build path)" style="edgeLabel;html=1;align=center;verticalAlign=middle;resizable=0;points=[];fontSize=14;" vertex="1" connectable="0" parent="cwQcEkth57no9mUlX8GR-20">
          <mxGeometry x="-0.3606" y="2" relative="1" as="geometry">
            <mxPoint x="48" y="-8" as="offset" />
          </mxGeometry>
        </mxCell>
        <mxCell id="cwQcEkth57no9mUlX8GR-26" value="" style="rounded=0;orthogonalLoop=1;jettySize=auto;html=1;entryX=0;entryY=0;entryDx=0;entryDy=5;entryPerimeter=0;fontSize=14;" edge="1" parent="1" target="cwQcEkth57no9mUlX8GR-25">
          <mxGeometry relative="1" as="geometry">
            <mxPoint x="426.3899999999999" y="344" as="sourcePoint" />
            <mxPoint x="690" y="342" as="targetPoint" />
          </mxGeometry>
        </mxCell>
        <mxCell id="cwQcEkth57no9mUlX8GR-27" value="add new package" style="edgeLabel;html=1;align=center;verticalAlign=middle;resizable=0;points=[];fontSize=14;" vertex="1" connectable="0" parent="cwQcEkth57no9mUlX8GR-26">
          <mxGeometry x="-0.096" relative="1" as="geometry">
            <mxPoint x="-1" y="-12" as="offset" />
          </mxGeometry>
        </mxCell>
        <mxCell id="cwQcEkth57no9mUlX8GR-29" value="add files to package request" style="rounded=0;orthogonalLoop=1;jettySize=auto;html=1;entryX=0;entryY=0;entryDx=0;entryDy=5;entryPerimeter=0;fontSize=14;" edge="1" parent="1" target="cwQcEkth57no9mUlX8GR-30">
          <mxGeometry x="0.1323" y="12" relative="1" as="geometry">
            <mxPoint x="426.3899999999999" y="420" as="sourcePoint" />
            <mxPoint x="814.29" y="426.0000000000001" as="targetPoint" />
            <mxPoint as="offset" />
          </mxGeometry>
        </mxCell>
        <mxCell id="cwQcEkth57no9mUlX8GR-33" style="rounded=0;orthogonalLoop=1;jettySize=auto;html=1;fontSize=14;" edge="1" parent="1" source="cwQcEkth57no9mUlX8GR-30">
          <mxGeometry relative="1" as="geometry">
            <mxPoint x="731.28" y="432" as="sourcePoint" />
            <mxPoint x="830" y="432" as="targetPoint" />
          </mxGeometry>
        </mxCell>
        <mxCell id="cwQcEkth57no9mUlX8GR-34" value="uploading..." style="edgeLabel;html=1;align=center;verticalAlign=middle;resizable=0;points=[];fontSize=14;" vertex="1" connectable="0" parent="cwQcEkth57no9mUlX8GR-33">
          <mxGeometry x="-0.3039" y="1" relative="1" as="geometry">
            <mxPoint x="12" y="-16" as="offset" />
          </mxGeometry>
        </mxCell>
        <mxCell id="cwQcEkth57no9mUlX8GR-31" value="return" style="html=1;verticalAlign=bottom;endArrow=open;dashed=1;endSize=8;curved=0;rounded=0;exitX=0;exitY=1;exitDx=0;exitDy=-5;exitPerimeter=0;fontSize=14;" edge="1" parent="1" source="cwQcEkth57no9mUlX8GR-30">
          <mxGeometry relative="1" as="geometry">
            <mxPoint x="815.28" y="445" as="sourcePoint" />
            <mxPoint x="426.3899999999999" y="442.0000000000002" as="targetPoint" />
          </mxGeometry>
        </mxCell>
        <mxCell id="cwQcEkth57no9mUlX8GR-32" value="return" style="html=1;verticalAlign=bottom;endArrow=open;dashed=1;endSize=8;curved=0;rounded=0;fontSize=14;" edge="1" parent="1">
          <mxGeometry relative="1" as="geometry">
            <mxPoint x="724.2899999999997" y="366.4999999999998" as="sourcePoint" />
            <mxPoint x="426.3899999999999" y="366.4999999999999" as="targetPoint" />
          </mxGeometry>
        </mxCell>
        <mxCell id="cwQcEkth57no9mUlX8GR-35" value="&lt;b style=&quot;font-size: 14px;&quot;&gt;.&lt;br style=&quot;font-size: 14px;&quot;&gt;.&lt;br style=&quot;font-size: 14px;&quot;&gt;.&lt;/b&gt;" style="text;html=1;strokeColor=none;fillColor=none;align=center;verticalAlign=middle;whiteSpace=wrap;rounded=0;fontSize=14;" vertex="1" parent="1">
          <mxGeometry x="540" y="447" width="60" height="30" as="geometry" />
        </mxCell>
        <mxCell id="cwQcEkth57no9mUlX8GR-38" value="Send Email if completed" style="endArrow=classic;html=1;rounded=0;fontSize=14;" edge="1" parent="1" target="cwQcEkth57no9mUlX8GR-41">
          <mxGeometry x="-0.5792" y="10" relative="1" as="geometry">
            <mxPoint x="426.3899999999999" y="557" as="sourcePoint" />
            <mxPoint x="1356" y="597" as="targetPoint" />
            <mxPoint as="offset" />
          </mxGeometry>
        </mxCell>
        <mxCell id="cwQcEkth57no9mUlX8GR-39" value="" style="shape=message;html=1;outlineConnect=0;fontSize=14;" vertex="1" parent="cwQcEkth57no9mUlX8GR-38">
          <mxGeometry width="20" height="14" relative="1" as="geometry">
            <mxPoint x="-278" y="-17" as="offset" />
          </mxGeometry>
        </mxCell>
        <mxCell id="cwQcEkth57no9mUlX8GR-40" value="" style="shape=umlLifeline;perimeter=lifelinePerimeter;whiteSpace=wrap;html=1;container=1;dropTarget=0;collapsible=0;recursiveResize=0;outlineConnect=0;portConstraint=eastwest;newEdgeStyle={&quot;curved&quot;:0,&quot;rounded&quot;:0};participant=umlActor;fontSize=14;" vertex="1" parent="1">
          <mxGeometry x="1064" y="397" width="20" height="230" as="geometry" />
        </mxCell>
        <mxCell id="cwQcEkth57no9mUlX8GR-41" value="" style="html=1;points=[[0,0,0,0,5],[0,1,0,0,-5],[1,0,0,0,5],[1,1,0,0,-5]];perimeter=orthogonalPerimeter;outlineConnect=0;targetShapes=umlLifeline;portConstraint=eastwest;newEdgeStyle={&quot;curved&quot;:0,&quot;rounded&quot;:0};fontSize=14;" vertex="1" parent="cwQcEkth57no9mUlX8GR-40">
          <mxGeometry x="5" y="160" width="10" height="10" as="geometry" />
        </mxCell>
        <mxCell id="cwQcEkth57no9mUlX8GR-7" value="" style="shape=image;verticalLabelPosition=bottom;labelBackgroundColor=default;verticalAlign=top;aspect=fixed;imageAspect=0;image=data:image/png,iVBORw0KGgoAAAANSUhEUgAAAKQAAADGCAYAAABciSsQAAAPOElEQVR4nO2dz2vb5h/H366/MRXZPEy9hbguKSFufjShYBgEmY2OntwdttOuu8nH5LLbjrvtYh+TP6GnXWpDYcx0xATCwkK8JKtM2hDjzMVD4MV4OHj6HvxLP23HPx9JnxcYIsnPL+nl55E+kp64ZFmWQRCM8L9pV8CKlMtlFAoF3NzcoFwu499//21v8/l8mJmZgdfrxfz8PDwezxRraj1c1EP2R7lcRi6XQ6FQQLlc7jtdIBDA/fv3sbi4CLfbPcYa2gMSsgfVahXZbBaiKA6VD8dxWF9fRygUGlHN7AkJ2YXj42P8+eefqNVqI8tzdnYWm5ubmJubG1medoKENKBWq2F/fx/5fN70O4FAAPfu3WufM7aoVCr4559/cHl52XVoD4fDWFlZGWm97QAJqaFSqeD169eQJEm3zefzYW1tDcFgsK/zwUqlgnfv3uH09NSwlw2FQvj0009HUm+7QEIqqNVqePXqla5n4zgO4XAYCwsLA+d7enqKP/74Q7eNpFRDQipIp9MoFAqqdT6fD0+fPgXHcUPnXywW8euvv+p6Sxq+O5CQTQ4PD3F2dqZat7CwgM3NzZGGa8rlMn755RdUKhXV+mfPntGFDoA7064AC0iSpJNxbm5u5DICgNfrxRdffKELmB8eHo60HKtCQqIR3lEyOzuLzz77bGyBbK/XC57nVeskSep6Ve8UHC9koVDQibC5uTn2W36BQEB33qj9YTgRxwv55s0b1XIwGJzYudzq6qpKfEmScHFxMZGyWcXRQtbrdRSLRdW6jY2NiZXPcRyWl5dV666uriZWPos4WsirqyvU6/X2stfrhc/nm2gd5ufnVctOP490tJDag//gwYOJ18Hv96tinLVaDaVSaeL1YAVHC6mNBX788cdTqccnn3yiWr7N4212w9FCXl9fq5Y/+uijqdTD6/WqlrU/FCfhaCGVT3oDjfjjNNCWq62Xk3CskLVaTXVBM4p71YNy9+5d1bKyXk7DsUJqA9/VanVKNXF2j6jFsUIC+qFyWlJqzxmnderAAo4WUjtMT+tiQttDaodwJ+FoIbU90bTukmifwaQe0qFo75JMQ0hJklQ9s9vtdvRzkY4WMhgMqpZLpdLEh23t3aL5+XlHv7/taCE9Ho+uN5rkI2D1eh25XE61TvsjcRqOFhKA7mmb8/NzwzcOx4Eoiqore47jBn6RzC44XshgMKh7wmd/f3/swWlJkpDNZlXrVldXHT1cAyQkgMYT4kokScLe3t7YyqtWq3j9+rXq7UOfz0fTrICEBNCQQTtU5vN5HBwcjLysWq2GdDqtu3h68uSJ43tHgIRss7m5qRu6RVHU9WTDIEkSUqmU7hz18ePHCAQCIynD6tB72QoqlQpevXqlu4Xo8/kQDoeHig+enZ0hm83q5A4Gg/j8888HztdukJAaJElCOp02vK8dDAaxsbHR92sO9Xod+Xwev//+u2F8MxAIjPV1WytCQhpQrVaRTqdNwz8cxyEYDGJ+fr49Wy7HcZAkCbVaDZVKBfl8XvfOjpKVlRWEw+FxNsOSkJAm1Ot1HB4eDj1RqRaPx4NwOIzFxcWR5msXSMgeSJKEo6Mj3QMQt8XtdmNlZUX3LjahhoTsk0KhgLdv3yKfz98qaD47O4uHDx/i0aNHU30q3SqQkANQKBTw999/Q5Ik3Nzc4Pr6GpVKBX6/H263G7Ozs/jwww/x4MED3QtcRHccJ2SpVLLUOys+n89RQ7yt/09NK+xydXWFfD4/0snrJ03rqj4YDNp66LdtDymKIrLZ7FRf3hoHHo8Hy8vLWF5etmXPaTshi8Ui9vf3bf+yvV3/742thDw/P8fBwYHpOaLb7W5feNy7d2/Ctbsd79+/B9CYVqVbL2+3SfNtI+Tx8bHh096th17v379v2XdVyuUyLi8vkcvlbH8L0hZCXlxcGD6/uLGxYbtzLbOHNOzSU1peyGKxiHQ6rRqm3W43IpGIbd9PMftPDnb49yKWfx7y8PBQJ+OzZ89sKyPQmC0tGo3q3t8+OjqyfFTB0kLm83ndEzmbm5vw+/1TqtHk8Hg8un8vUq/XcXp6OsVaDY+lhfztt99UyysrK456a8/r9ereB9K+yWg1LCtksVjUzfiwuro6xRpNB+1bk0bvelsJywr5119/qZYXFhZsfUutG3b6Tw6WFfLy8lK1rJ2nx0lo214qlSx7396yQmpDHna+qu4Fx3G6CzmrTpxvSSGNpmO2w12KYbDLPOWWFFLbOzp5gs8WH3zwgWqZhuwJot3Zdro1OCh37ljyUOqwRysI20BCEkxBQhJMQUISTEFCEkxBQhJMQUISTEFCEkxBQhJMQUISTEFCEkxBQhJMQUISTEFCEkxBQhJMQUISTEFCEkxh6xl0W9TrdVxcXKhefbhz5w4ePnyoexeFFS4uLvD27dv2u0MzMzMIBoNYWFiw9ftDjhAynU6jWCzq1h8dHeGrr75iTsqzszMcHh7q1ufzeVSrVTx+/HgKtZoMth+yq9WqoYwt3r17N8Ha9Id2EoR+t9kB2wv533//DbV9Gljpv0SMGtsLSVgLEpJgChKSYAoSkmAKEpJgChKSYAoSkmAKEpJgChKSYAoSkmAKEpJgChKSYAoSkmAKEpJgChKSYAoSkmAKEpJgChKSYAoSkmAKEpJgChKSYAoSkmAKEpJgChKSYAoSkmAKW8ztI0kSfv75Z8NtdpsFwqyt19fXU6jN6LGFkLVarev8PXbC7m215JDt9XptPSXdKLh79+60qzAQlhSS4ziEQqGB0vn9/jHUaLwsLi7e6vt+vx9zc3Njqs14seyQHQ6Hsbq6inK53Heaubk5HB8fo1QqjbFmo2djYwNPnjzpq60cx8Hr9U6gVuPBskICjZ3Pcdy0qzERnNJWSwvJAqIo4uTkBJVKBYFAAOvr65Y8LWAFEnIIDg4OIIpie7lQKKBYLOLp06eWPYebNpa8qGGBarWqkrFFvV7H0dHRFGpkD0jIAbm4uDDdViqVUKvVJlgb+0BCDsjNzc1Q2wljSEiCKUhIgilISIIpSEiCKUhIgilISIIpSEiCKUhIgilISIIpSEiCKUhIgilISIIpSEiCKUhIgilISIIpSEiCKUhIgilISIIpSEiCKUhIgilISIIpSEiCKUhIgilISIIpSEiCKUhIgikcP/vZ+fk53r9/f+t0vSaZ39vbG3jaaUmSBkpnBxwvZKVSQaVSGXm+VpullxUcN2T7fL6x5Ds7OzuWfN1uN2ZmZsaSN4s4TshgMIhAIDDSPAOBACKRyMildLvdWFtbg8fjGWm+LOOSZVmediUIooXjekiCbUhIgilISIIpSEiCKUhIgilISIIpSEiCKUhIgilISIIpSEiCKUhIgilsJmQOiYgLLpcLsZSdyhq+zFSskc41ucoOxOiEzKWQiEUQcTUb7nLBFYkglkghlxtZKYTNGckDurlUDKHnu/oNmQx2M8+x+yIOcW8LS6MojLA1w/eQuQS+bcnIx5EUZchy4yOKScQF3jhdKtbsRROgDpRoMXQPmXv5AhkAgIDk3haiim1LS1Fs7USxNWwhhGMYuocUTxo6gl9DaNjMCMcztJChteaQnDmB2Mf3c4lIY6huDfOZbYQUF0KRhHIAzyGViCESiXQulFwuRCIRxFK3HehTiEW6XWnmkEvFEIkoLspcEURiCfRXVA6pWESVNpZIdT0dyaUSiI2kbeo6KC8sI7HudVCm7b/9rav9CBI5ALlEZ9+21g2KPCxiXOYBGYAMXpCTYo+vJwWZ5/lOGqCx3PwIydY3k7Kg+A6a26FMF9cWJspxvrGtk08zL15RR32t2umMy+JlXVHKsuJxVXtUH0Ffmq48ow8fl/W70qx9BvtL9RE67e+nPj3b3/o+L8fjgq48wyL6ZHghZVkW4xpRhHhPMeWk0GXHy03ReVmIJ3XbO+WZ7SjlTlHsbEMZZTkpdCRIavJTblPXQysVLwvtxKKcFHjTA9TOs5lGVOSZVO5L3ZE1E1JZF16OK+sRF9Q/FgNbbt9+bdsVHZEoGh/PPhmJkLLc7Pk0v5SuYvYSsiud3sDswDTWK2XsJr5ZL9hfWaoDYrBd1ZMrRhSznuR2P7g+8lSOYtovDNR+zQ9gGAM1jCwwvhTdwZ4sIhkX0Ar0ZHa38Tw0zDmRGSGsmUSTlKRiIWxnAPDmcdB2lED4HluGgdIovhYaf2XfGLdDSO4gqku7hEfrjb8yJ52z63Z5fBzfRbVpmim//Ka5DzM46ePEvGeeS1v4XuiRdsD2C8k9k3SDMeKZK5YQ3dpBdOs7pBI/4oftXWSQwe7zb7EmDlrxHFKJl/jp5AWy2c7aTKZ7qt3nLjQumxrhKLOi21GC3eeIZI0tb5XVEKv/RjQu+NQVbZe3/sg8p6Uv8Q2/jUymKYHe9tvn2SvtGNo/CGOaSqUp5pdriIS2kUEG2z+msLVj0iWYkEtEENruYZ4JQjyO7PY2MtjF89jXkPsoO9PDcn5t2MBWDm+yvb81Lcbf/t6M9+EK5VCRfXO7OzKpWFtGXkhCVNwBkmUR8V5D9qMt7CWbhe8+7/0wgpBU5G/82Rt6bOoM48wxkfb3htmnfVI/NeOUQhJ7O1EsDbIvojvoOGkcH2vHUW/7gxmWbuXlXuJFexTu3fBh2jC19pswZiFTaHllen7TI6BuPEyIOOmzBtGdVm+awXYoBm1HudS+8niBlxM4ItHWFUJmGz+a9NrK27Ff93GW02mDSZ6pGH4wePZFnXYy7e/JcBfpjZBAI7yjiT+JimC0UWhAFapobhRFWWz92Q59aEIqqnx7hX3U9USveKJJYF9MxmVBF8PsFqTWtEEdo1GFTAR141Txy/4D/2ZhGE1cs0dss//29277oIxESHT98CaVNr5b0TkIBndqFHm27iT0J6TciXsaHmi15K38eW3w16T+txNSVscFTT58jzsqRu0zzZMX5GSr/Yb53rb9zAopy7KYlONxQXdbDzwv80Ky3eOZplWm4wV1Tyom5bhgfBeodbD7FlLuFnBupE3GBc1BaNzWFOJG7RhCSNPyeJnnBTlputN6lCkmZUFzy699p6urkLdt//iEpOn4CKZg9iqbcCYkJMEUJCTBFCQkwRQkJMEUJCTBFCQkwRQkJMEUJCTBFCQkwRQkJMEUJCTBFCQkwRQkJMEUJCTBFCQkwRQkJMEUJCTBFCQkwRQkJMEUJCTBFP8HTQKA7gICm3IAAAAASUVORK5CYII=;fontSize=14;" vertex="1" parent="1">
          <mxGeometry x="1024.31" y="371" width="99.39" height="120" as="geometry" />
        </mxCell>
        <mxCell id="cwQcEkth57no9mUlX8GR-42" style="edgeStyle=orthogonalEdgeStyle;rounded=0;orthogonalLoop=1;jettySize=auto;html=1;curved=0;dashed=1;fontSize=14;startArrow=classic;startFill=1;" edge="1" parent="1" source="cwQcEkth57no9mUlX8GR-40" target="cwQcEkth57no9mUlX8GR-9">
          <mxGeometry relative="1" as="geometry">
            <mxPoint x="889" y="607" as="targetPoint" />
            <Array as="points">
              <mxPoint x="920" y="607" />
            </Array>
          </mxGeometry>
        </mxCell>
        <mxCell id="cwQcEkth57no9mUlX8GR-43" value="Download the build(s)" style="edgeLabel;html=1;align=center;verticalAlign=middle;resizable=0;points=[];fontSize=14;" vertex="1" connectable="0" parent="cwQcEkth57no9mUlX8GR-42">
          <mxGeometry x="0.0486" y="-2" relative="1" as="geometry">
            <mxPoint x="43" y="-10" as="offset" />
          </mxGeometry>
        </mxCell>
        <mxCell id="cwQcEkth57no9mUlX8GR-46" value="" style="group" vertex="1" connectable="0" parent="1">
          <mxGeometry x="220" y="314" width="590" height="70" as="geometry" />
        </mxCell>
        <mxCell id="cwQcEkth57no9mUlX8GR-44" value="OPT" style="shape=umlFrame;whiteSpace=wrap;html=1;pointerEvents=0;" vertex="1" parent="cwQcEkth57no9mUlX8GR-46">
          <mxGeometry width="590" height="70" as="geometry" />
        </mxCell>
        <mxCell id="cwQcEkth57no9mUlX8GR-45" value="create package only required" style="text;html=1;align=center;verticalAlign=middle;resizable=0;points=[];autosize=1;strokeColor=none;fillColor=none;" vertex="1" parent="cwQcEkth57no9mUlX8GR-46">
          <mxGeometry y="27" width="180" height="30" as="geometry" />
        </mxCell>
      </root>
    </mxGraphModel>
  </diagram>
</mxfile>
